<svg width="494" height="512" viewBox="0 0 494 512" fill="none" xmlns="http://www.w3.org/2000/svg">
<g clip-path="url(#clip0_615_29253)">
<path d="M221.121 96.9619V199.494C221.121 211.428 230.79 221.103 242.718 221.103C254.645 221.103 264.314 211.428 264.314 199.494V96.9619C264.314 85.0273 254.645 75.3524 242.718 75.3524C230.79 75.3524 221.121 85.0273 221.121 96.9619Z" fill="#23272A"/>
<path d="M242.721 43.2189C254.65 43.2189 264.321 33.544 264.321 21.6095C264.321 9.67488 254.65 0 242.721 0C230.792 0 221.121 9.67488 221.121 21.6095C221.121 33.544 230.792 43.2189 242.721 43.2189Z" fill="#23272A"/>
<path d="M208.518 78.6496C220.447 78.6496 230.118 68.9747 230.118 57.0401C230.118 45.1055 220.447 35.4307 208.518 35.4307C196.589 35.4307 186.918 45.1055 186.918 57.0401C186.918 68.9747 196.589 78.6496 208.518 78.6496Z" fill="#FF7550"/>
<path d="M172.888 118.576C184.818 118.576 194.488 108.901 194.488 96.9664C194.488 85.0318 184.818 75.3569 172.888 75.3569C160.959 75.3569 151.289 85.0318 151.289 96.9664C151.289 108.901 160.959 118.576 172.888 118.576Z" fill="#B6A6F6"/>
<path d="M276.924 78.6496C288.854 78.6496 298.524 68.9747 298.524 57.0401C298.524 45.1055 288.854 35.4307 276.924 35.4307C264.995 35.4307 255.324 45.1055 255.324 57.0401C255.324 68.9747 264.995 78.6496 276.924 78.6496Z" fill="#CFFF63" stroke="#CFFF63" stroke-width="0.360179" stroke-miterlimit="10"/>
<path d="M312.554 118.576C324.483 118.576 334.154 108.901 334.154 96.9664C334.154 85.0318 324.483 75.3569 312.554 75.3569C300.624 75.3569 290.954 85.0318 290.954 96.9664C290.954 108.901 300.624 118.576 312.554 118.576Z" fill="#4D57B9"/>
<path d="M380.967 251.606V354.138C380.967 366.073 390.636 375.748 402.564 375.748C414.491 375.748 424.16 366.073 424.16 354.138V251.606C424.16 239.672 414.491 229.997 402.564 229.997C390.636 229.997 380.967 239.672 380.967 251.606Z" fill="#23272A"/>
<path d="M402.567 197.871C414.496 197.871 424.167 188.196 424.167 176.262C424.167 164.327 414.496 154.652 402.567 154.652C390.638 154.652 380.967 164.327 380.967 176.262C380.967 188.196 390.638 197.871 402.567 197.871Z" fill="#23272A"/>
<path d="M368.357 233.294C380.286 233.294 389.957 223.619 389.957 211.685C389.957 199.75 380.286 190.075 368.357 190.075C356.428 190.075 346.757 199.75 346.757 211.685C346.757 223.619 356.428 233.294 368.357 233.294Z" fill="#FF7550"/>
<path d="M332.727 273.22C344.657 273.22 354.327 263.545 354.327 251.611C354.327 239.676 344.657 230.001 332.727 230.001C320.798 230.001 311.128 239.676 311.128 251.611C311.128 263.545 320.798 273.22 332.727 273.22Z" fill="#CFFF63" stroke="#CFFF63" stroke-width="0.360179" stroke-miterlimit="10"/>
<path d="M436.77 233.294C448.7 233.294 458.37 223.619 458.37 211.685C458.37 199.75 448.7 190.075 436.77 190.075C424.841 190.075 415.17 199.75 415.17 211.685C415.17 223.619 424.841 233.294 436.77 233.294Z" fill="#B6A6F6"/>
<path d="M472.4 273.22C484.329 273.22 494 263.545 494 251.611C494 239.676 484.329 230.001 472.4 230.001C460.47 230.001 450.8 239.676 450.8 251.611C450.8 263.545 460.47 273.22 472.4 273.22Z" fill="#4D57B9"/>
<path d="M69.8395 251.606L69.8395 354.138C69.8395 366.073 79.5086 375.748 91.436 375.748C103.363 375.748 113.032 366.073 113.032 354.138V251.606C113.032 239.672 103.363 229.997 91.436 229.997C79.5086 229.997 69.8395 239.672 69.8395 251.606Z" fill="#23272A"/>
<path d="M91.4331 197.871C103.362 197.871 113.033 188.196 113.033 176.262C113.033 164.327 103.362 154.652 91.4331 154.652C79.5038 154.652 69.8332 164.327 69.8332 176.262C69.8332 188.196 79.5038 197.871 91.4331 197.871Z" fill="#23272A"/>
<path d="M57.2291 233.294C69.1584 233.294 78.829 223.619 78.829 211.685C78.829 199.75 69.1584 190.075 57.2291 190.075C45.2998 190.075 35.6292 199.75 35.6292 211.685C35.6292 223.619 45.2998 233.294 57.2291 233.294Z" fill="#CFFF63" stroke="#CFFF63" stroke-width="0.360179" stroke-miterlimit="10"/>
<path d="M21.5999 273.22C33.5292 273.22 43.1998 263.545 43.1998 251.611C43.1998 239.676 33.5292 230.001 21.5999 230.001C9.67061 230.001 0 239.676 0 251.611C0 263.545 9.67061 273.22 21.5999 273.22Z" fill="#4D57B9"/>
<path d="M125.636 233.294C137.565 233.294 147.236 223.619 147.236 211.685C147.236 199.75 137.565 190.075 125.636 190.075C113.707 190.075 104.036 199.75 104.036 211.685C104.036 223.619 113.707 233.294 125.636 233.294Z" fill="#B6A6F6"/>
<path d="M161.265 273.22C173.194 273.22 182.865 263.545 182.865 251.611C182.865 239.676 173.194 230.001 161.265 230.001C149.336 230.001 139.665 239.676 139.665 251.611C139.665 263.545 149.336 273.22 161.265 273.22Z" fill="#FF7550"/>
<path d="M221.121 387.858V490.39C221.121 502.325 230.79 512 242.718 512C254.645 512 264.314 502.325 264.314 490.39V387.858C264.314 375.924 254.645 366.249 242.718 366.249C230.79 366.249 221.121 375.924 221.121 387.858Z" fill="#23272A"/>
<path d="M242.721 334.108C254.651 334.108 264.321 324.433 264.321 312.498C264.321 300.564 254.651 290.889 242.721 290.889C230.792 290.889 221.121 300.564 221.121 312.498C221.121 324.433 230.792 334.108 242.721 334.108Z" fill="#23272A"/>
<path d="M208.518 369.538C220.447 369.538 230.118 359.863 230.118 347.929C230.118 335.994 220.447 326.319 208.518 326.319C196.589 326.319 186.918 335.994 186.918 347.929C186.918 359.863 196.589 369.538 208.518 369.538Z" fill="#4D57B9"/>
<path d="M172.888 409.465C184.818 409.465 194.488 399.79 194.488 387.855C194.488 375.92 184.818 366.246 172.888 366.246C160.959 366.246 151.289 375.92 151.289 387.855C151.289 399.79 160.959 409.465 172.888 409.465Z" fill="#CFFF63" stroke="#CFFF63" stroke-width="0.360179" stroke-miterlimit="10"/>
<path d="M276.924 369.538C288.854 369.538 298.524 359.863 298.524 347.929C298.524 335.994 288.854 326.319 276.924 326.319C264.995 326.319 255.324 335.994 255.324 347.929C255.324 359.863 264.995 369.538 276.924 369.538Z" fill="#B6A6F6"/>
<path d="M312.554 409.465C324.483 409.465 334.154 399.79 334.154 387.855C334.154 375.92 324.483 366.246 312.554 366.246C300.624 366.246 290.954 375.92 290.954 387.855C290.954 399.79 300.624 409.465 312.554 409.465Z" fill="#FF7550"/>
</g>
<defs>
<clipPath id="clip0_615_29253">
<rect width="494" height="512" fill="white"/>
</clipPath>
</defs>
</svg>
