<svg width="166" height="124" viewBox="0 0 166 124" fill="none" xmlns="http://www.w3.org/2000/svg">
<path d="M65.1813 89.628L33.7558 58.9213C26.6361 51.9646 16.1938 51.105 10.4322 57.0014C4.67067 62.8979 5.77162 73.3175 12.8913 80.2743L44.3168 110.981C51.4364 117.938 61.8787 118.797 67.6403 112.901C73.4019 107.004 72.3009 96.5848 65.1813 89.628Z" fill="#4D57B9"/>
<path d="M133.39 10.3055L47.049 91.0457C40.9626 96.7373 40.6425 106.285 46.3341 112.372C52.0257 118.458 61.5736 118.778 67.66 113.087L154.001 32.3464C160.088 26.6548 160.408 17.1068 154.716 11.0204C149.025 4.93402 139.477 4.61395 133.39 10.3055Z" fill="#B6A6F6"/>
<path d="M57.6423 117.359C66.1706 117.359 73.0842 110.446 73.0842 101.917C73.0842 93.3891 66.1706 86.4756 57.6423 86.4756C49.114 86.4756 42.2004 93.3891 42.2004 101.917C42.2004 110.446 49.114 117.359 57.6423 117.359Z" fill="#FF7550"/>
</svg>
