<svg width="339" height="506" viewBox="0 0 339 506" fill="none" xmlns="http://www.w3.org/2000/svg">
<path d="M3.83738 154.164C-2.75507 160.548 -0.638164 165.768 8.53507 165.768H330.029C339.176 165.768 341.346 160.541 334.779 154.112L182.01 4.82506C178.798 1.73817 174.518 0.00977871 170.064 4.13662e-05C165.609 -0.00969598 161.322 1.69998 158.097 4.7728L3.83738 154.164Z" fill="#292C2D"/>
<path d="M76.4228 399.631H89.6142" stroke="#292C2D" stroke-width="2.23628" stroke-miterlimit="10"/>
<path d="M163.648 300.579H176.846" stroke="#292C2D" stroke-width="2.23628" stroke-miterlimit="10"/>
<path d="M251.443 215.378H264.641" stroke="black" stroke-width="1.0436" stroke-miterlimit="10"/>
<path d="M251.443 463.567H264.641" stroke="#292C2D" stroke-width="2.23628" stroke-miterlimit="10"/>
<path d="M126.597 351.079V337.888" stroke="#FEFCF5" stroke-width="2.23628" stroke-miterlimit="10"/>
<path d="M214.498 179.092H125.974C105.572 179.092 89.0325 195.631 89.0325 216.033V216.745C89.0325 237.147 105.572 253.686 125.974 253.686H214.498C234.9 253.686 251.439 237.147 251.439 216.745V216.033C251.439 195.631 234.9 179.092 214.498 179.092Z" fill="#4D57B9"/>
<path d="M76.4228 468.604L76.4228 297.403C76.4228 277.477 60.2698 261.324 40.344 261.324C20.4183 261.324 4.26527 277.477 4.26527 297.403L4.26527 468.604C4.26527 488.529 20.4183 504.682 40.344 504.682C60.2698 504.682 76.4228 488.529 76.4228 468.604Z" fill="#B6A6F6"/>
<path d="M40.3386 252.665C60.9355 252.665 77.6326 235.968 77.6326 215.371C77.6326 194.774 60.9355 178.077 40.3386 178.077C19.7417 178.077 3.04456 194.774 3.04456 215.371C3.04456 235.968 19.7417 252.665 40.3386 252.665Z" fill="#292C2D"/>
<path d="M126.215 337.874C146.812 337.874 163.509 321.177 163.509 300.58C163.509 279.983 146.812 263.286 126.215 263.286C105.618 263.286 88.9213 279.983 88.9213 300.58C88.9213 321.177 105.618 337.874 126.215 337.874Z" fill="#4D57B9"/>
<path d="M163.884 479.681V373.28C163.884 358.912 152.236 347.263 137.867 347.263H115.306C100.938 347.263 89.2895 358.912 89.2895 373.28L89.2895 479.681C89.2895 494.049 100.938 505.698 115.306 505.698H137.867C152.236 505.698 163.884 494.049 163.884 479.681Z" fill="#FF7550"/>
<path d="M213.864 422.075C234.461 422.075 251.158 405.378 251.158 384.781C251.158 364.184 234.461 347.487 213.864 347.487C193.268 347.487 176.57 364.184 176.57 384.781C176.57 405.378 193.268 422.075 213.864 422.075Z" fill="#292C2D"/>
<path d="M213.864 505.986C234.461 505.986 251.158 489.289 251.158 468.692C251.158 448.095 234.461 431.398 213.864 431.398C193.268 431.398 176.57 448.095 176.57 468.692C176.57 489.289 193.268 505.986 213.864 505.986Z" fill="#4D57B9"/>
<path d="M176.278 269.999V331.18C176.278 335.041 179.408 338.171 183.269 338.171H244.45C248.311 338.171 251.441 335.041 251.441 331.18V269.999C251.441 266.138 248.311 263.008 244.45 263.008H183.269C179.408 263.008 176.278 266.138 176.278 269.999Z" fill="#B6A6F6"/>
<path d="M301.423 421.687C322.02 421.687 338.717 404.99 338.717 384.393C338.717 363.796 322.02 347.099 301.423 347.099C280.826 347.099 264.129 363.796 264.129 384.393C264.129 404.99 280.826 421.687 301.423 421.687Z" fill="#B6A6F6" stroke="#CFFF63" stroke-width="0.202756" stroke-miterlimit="10"/>
<path d="M337.496 213.925C337.496 193.999 321.343 177.846 301.417 177.846C281.492 177.846 265.339 193.999 265.339 213.925V301.874C265.339 321.8 281.492 337.953 301.417 337.953C321.343 337.953 337.496 321.8 337.496 301.874V213.925Z" fill="#FF7550"/>
<path d="M263.837 437.828V499.009C263.837 502.87 266.967 506 270.828 506H332.009C335.87 506 339 502.87 339 499.009V437.828C339 433.967 335.87 430.837 332.009 430.837H270.828C266.967 430.837 263.837 433.967 263.837 437.828Z" fill="#CFFF63"/>
<path d="M126.153 253.68C146.75 253.68 163.447 236.982 163.447 216.386C163.447 195.789 146.75 179.092 126.153 179.092C105.556 179.092 88.8586 195.789 88.8586 216.386C88.8586 236.982 105.556 253.68 126.153 253.68Z" fill="#CFFF63"/>
</svg>
