<svg width="151" height="99" viewBox="0 0 151 99" fill="none" xmlns="http://www.w3.org/2000/svg">
<path d="M65.665 44.6635L65.665 52.8294" stroke="#FFFBF3" stroke-width="1.51669" stroke-miterlimit="10"/>
<path d="M95.7179 75.726L103.884 75.726" stroke="#FFFBF3" stroke-width="1.51669" stroke-miterlimit="10"/>
<path d="M22.8889 44.7651L127.671 44.7651C139.867 44.7651 149.753 34.7441 149.753 22.3825C149.753 10.021 139.867 -2.7135e-05 127.671 -2.76681e-05L22.8889 -3.22483e-05C10.6935 -3.27814e-05 0.807207 10.021 0.807206 22.3825C0.807206 34.7441 10.6935 44.7651 22.8889 44.7651Z" fill="#B6A6F6"/>
<path d="M103.882 75.4917C103.882 88.2418 114.218 98.5778 126.968 98.5778C139.718 98.5778 150.054 88.2418 150.054 75.4917C150.054 62.7417 139.718 52.4057 126.968 52.4057C114.218 52.4057 103.882 62.7417 103.882 75.4917Z" fill="#4D57B9"/>
<path d="M16.1052 98.8119L81.97 98.8119C90.8647 98.8119 98.0752 91.6013 98.0752 82.7067L98.0752 68.741C98.0752 59.8463 90.8647 52.6358 81.97 52.6358L16.1052 52.6358C7.21058 52.6358 2.45914e-05 59.8463 2.42026e-05 68.741L2.35922e-05 82.7067C2.32034e-05 91.6013 7.21058 98.8119 16.1052 98.8119Z" fill="#FF7550"/>
</svg>
