<?xml version="1.0" encoding="UTF-8" standalone="no"?>
<svg
   width="450"
   height="311.00021"
   viewBox="0 0 450 311.00021"
   fill="none"
   version="1.1"
   id="svg20"
   sodipodi:docname="envelopes1.svg"
   inkscape:version="1.2.2 (b0a8486541, 2022-12-01)"
   xmlns:inkscape="http://www.inkscape.org/namespaces/inkscape"
   xmlns:sodipodi="http://sodipodi.sourceforge.net/DTD/sodipodi-0.dtd"
   xmlns="http://www.w3.org/2000/svg"
   xmlns:svg="http://www.w3.org/2000/svg">
  <defs
     id="defs24" />
  <sodipodi:namedview
     id="namedview22"
     pagecolor="#ffffff"
     bordercolor="#000000"
     borderopacity="0.25"
     inkscape:showpageshadow="2"
     inkscape:pageopacity="0.0"
     inkscape:pagecheckerboard="0"
     inkscape:deskcolor="#d1d1d1"
     showgrid="false"
     inkscape:zoom="2.9111111"
     inkscape:cx="205.76336"
     inkscape:cy="136.88931"
     inkscape:window-width="2560"
     inkscape:window-height="1371"
     inkscape:window-x="0"
     inkscape:window-y="32"
     inkscape:window-maximized="1"
     inkscape:current-layer="svg20" />
  <path
     d="M 343.537,39 H 19.463 C 8.71389,39 0,47.7386 0,58.5182 v 203.964 c 0,10.779 8.71389,19.518 19.463,19.518 h 324.074 c 10.749,0 19.463,-8.739 19.463,-19.518 V 58.5182 C 363,47.7386 354.286,39 343.537,39 Z"
     fill="#ff7550"
     id="path2" />
  <path
     d="M 182,165.9952 5,45.6641"
     stroke="#292c2d"
     stroke-width="1.02"
     stroke-miterlimit="10"
     id="path4" />
  <path
     d="M 358,45.6665 182,165.2732"
     stroke="#292c2d"
     stroke-width="1.02"
     stroke-miterlimit="10"
     id="path6" />
  <path
     d="M 398.537,0 H 74.463 C 63.7139,0 55,8.7386 55,19.5182 v 203.964 c 0,10.779 8.7139,19.518 19.463,19.518 h 324.074 c 10.749,0 19.463,-8.739 19.463,-19.518 V 19.5182 C 418,8.7386 409.286,0 398.537,0 Z"
     fill="#4d57b9"
     id="path8" />
  <path
     d="M 237,126.9952 60,6.6641"
     stroke="#292c2d"
     stroke-width="1.02"
     stroke-miterlimit="10"
     id="path10" />
  <path
     d="M 413,6.6665 237,126.2732"
     stroke="#292c2d"
     stroke-width="1.02"
     stroke-miterlimit="10"
     id="path12" />
  <path
     d="M 430.537,68.0002 H 106.463 C 95.7139,68.0002 87,76.7382 87,87.5182 v 203.964 c 0,10.779 8.7139,19.518 19.463,19.518 h 324.074 c 10.749,0 19.463,-8.739 19.463,-19.518 V 87.5182 c 0,-10.78 -8.714,-19.518 -19.463,-19.518 z"
     fill="#cfff63"
     id="path14" />
  <path
     d="M 269,194.9952 92,74.6642"
     stroke="#292c2d"
     stroke-width="1.02"
     stroke-miterlimit="10"
     id="path16" />
  <path
     d="M 445,74.6662 269,194.2732"
     stroke="#292c2d"
     stroke-width="1.02"
     stroke-miterlimit="10"
     id="path18" />
</svg>
