<svg width="450" height="349" viewBox="0 0 450 349" fill="none" xmlns="http://www.w3.org/2000/svg">
<path d="M343.537 76.7588H19.463C8.71389 76.7588 0 85.4974 0 96.277V300.241C0 311.02 8.71389 319.759 19.463 319.759H343.537C354.286 319.759 363 311.02 363 300.241V96.277C363 85.4974 354.286 76.7588 343.537 76.7588Z" fill="#FF7550"/>
<path d="M182 203.754L5 83.4229" stroke="#292C2D" stroke-width="1.02" stroke-miterlimit="10"/>
<path d="M358 83.4253L182 203.032" stroke="#292C2D" stroke-width="1.02" stroke-miterlimit="10"/>
<path d="M398.537 37.7588H74.463C63.7139 37.7588 55 46.4974 55 57.277V261.241C55 272.02 63.7139 280.759 74.463 280.759H398.537C409.286 280.759 418 272.02 418 261.241V57.277C418 46.4974 409.286 37.7588 398.537 37.7588Z" fill="#4D57B9"/>
<path d="M237 164.754L60 44.4229" stroke="#292C2D" stroke-width="1.02" stroke-miterlimit="10"/>
<path d="M413 44.4253L237 164.032" stroke="#292C2D" stroke-width="1.02" stroke-miterlimit="10"/>
<path d="M430.537 105.759H106.463C95.7139 105.759 87 114.497 87 125.277V329.241C87 340.02 95.7139 348.759 106.463 348.759H430.537C441.286 348.759 450 340.02 450 329.241V125.277C450 114.497 441.286 105.759 430.537 105.759Z" fill="#CFFF63"/>
<path d="M269 232.754L92 112.423" stroke="#292C2D" stroke-width="1.02" stroke-miterlimit="10"/>
<path d="M445 112.425L269 232.032" stroke="#292C2D" stroke-width="1.02" stroke-miterlimit="10"/>
</svg>
