<svg width="59" height="58" viewBox="0 0 59 58" fill="none" xmlns="http://www.w3.org/2000/svg">
<path d="M46.5 31.4993L51 35.9993V51.9225C51 53.438 50.475 54.7207 49.425 55.7708C48.375 56.8208 47.0923 57.3457 45.5768 57.3457H5.42325C3.90775 57.3457 2.625 56.8208 1.575 55.7708C0.525 54.7207 0 53.438 0 51.9225V11.769C0 10.2535 0.525 8.97075 1.575 7.92075C2.625 6.87075 3.90775 6.34575 5.42325 6.34575H21.7215C21.4365 7.07275 21.2278 7.814 21.0953 8.5695C20.9628 9.3255 20.856 10.0842 20.775 10.8457H5.42325C5.19225 10.8457 4.98075 10.942 4.78875 11.1345C4.59625 11.3265 4.5 11.538 4.5 11.769V51.9225C4.5 52.1535 4.59625 52.365 4.78875 52.557C4.98075 52.7495 5.19225 52.8457 5.42325 52.8457H45.5768C45.8078 52.8457 46.0193 52.7495 46.2113 52.557C46.4038 52.365 46.5 52.1535 46.5 51.9225V31.4993ZM49.131 19.3147L58.9035 29.088L55.7423 32.2493L45.969 22.4767C44.996 23.1728 43.9143 23.716 42.7238 24.1065C41.5338 24.4965 40.2925 24.6915 39 24.6915C35.5575 24.6915 32.6393 23.4945 30.2453 21.1005C27.8513 18.7065 26.6543 15.7882 26.6543 12.3457C26.6543 8.90325 27.8513 5.985 30.2453 3.591C32.6393 1.197 35.5575 0 39 0C42.4425 0 45.3608 1.197 47.7548 3.591C50.1488 5.985 51.3458 8.90325 51.3458 12.3457C51.3458 13.6957 51.141 14.9515 50.7315 16.113C50.322 17.2745 49.7885 18.3417 49.131 19.3147ZM39 20.1922C41.196 20.1922 43.0528 19.4335 44.5703 17.916C46.0878 16.3985 46.8465 14.5417 46.8465 12.3457C46.8465 10.1497 46.0878 8.293 44.5703 6.7755C43.0528 5.258 41.196 4.49925 39 4.49925C36.804 4.49925 34.9473 5.258 33.4298 6.7755C31.9123 8.293 31.1535 10.1497 31.1535 12.3457C31.1535 14.5417 31.9123 16.3985 33.4298 17.916C34.9473 19.4335 36.804 20.1922 39 20.1922ZM4.5 52.8457V10.8457V30.6915V29.8207V52.8457Z" fill="#292C2D"/>
</svg>
