<svg width="41" height="53" viewBox="0 0 41 53" fill="none" xmlns="http://www.w3.org/2000/svg">
<path d="M10.25 40.3783C10.25 41.5105 11.1678 42.4283 12.3 42.4283H28.7C29.8322 42.4283 30.75 41.5105 30.75 40.3783C30.75 39.2461 29.8322 38.3283 28.7 38.3283H12.3C11.1678 38.3283 10.25 39.2461 10.25 40.3783ZM10.25 29.445C10.25 30.5772 11.1678 31.495 12.3 31.495H28.7C29.8322 31.495 30.75 30.5772 30.75 29.445C30.75 28.3128 29.8322 27.395 28.7 27.395H12.3C11.1678 27.395 10.25 28.3128 10.25 29.445ZM4.94118 52.6783C3.56039 52.6783 2.39167 52.2 1.435 51.2433C0.478333 50.2867 0 49.1179 0 47.7372V5.68618C0 4.30539 0.478333 3.13666 1.435 2.18C2.39167 1.22333 3.56039 0.744995 4.94118 0.744995H16.503C23 0.744995 29.2309 3.32592 33.825 7.92C38.4191 12.5141 41 18.745 41 25.242V47.7372C41 49.1179 40.5217 50.2867 39.565 51.2433C38.6083 52.2 37.4396 52.6783 36.0588 52.6783H4.94118ZM30.75 17.145C27.3534 17.145 24.6 14.3915 24.6 10.995C24.6 7.59845 21.8466 4.845 18.45 4.845H4.94118C4.73072 4.845 4.53802 4.93269 4.36308 5.10808C4.1877 5.28301 4.1 5.47571 4.1 5.68618V47.7372C4.1 47.9476 4.1877 48.1403 4.36308 48.3153C4.53802 48.4906 4.73072 48.5783 4.94118 48.5783H36.0588C36.2693 48.5783 36.462 48.4906 36.6369 48.3153C36.8123 48.1403 36.9 47.9476 36.9 47.7372V23.295C36.9 19.8984 34.1465 17.145 30.75 17.145Z" fill="#292C2D"/>
</svg>
