<svg width="140" height="109" viewBox="0 0 140 109" fill="none" xmlns="http://www.w3.org/2000/svg">
<path d="M26.4521 9.11424C26.4521 8.27288 27.1342 7.59082 27.9756 7.59082H137.872C138.714 7.59082 139.396 8.27288 139.396 9.11424V71.622C139.396 72.4633 138.714 73.1454 137.872 73.1454H27.9756C27.1342 73.1454 26.4521 72.4633 26.4521 71.622V9.11424Z" fill="#4D57B9"/>
<path d="M26.4521 1.95018C26.4521 1.10882 27.1342 0.426758 27.9756 0.426758L93.0898 0.426758C93.6562 0.426758 94.1759 0.741028 94.439 1.24267L97.6089 7.28748C98.1408 8.30185 97.4051 9.51841 96.2597 9.51841L27.9756 9.51841C27.1342 9.51841 26.4521 8.83635 26.4521 7.99499V1.95018Z" fill="#4D57B9"/>
<path d="M-0.000976562 25.3642C-0.000976562 24.5229 0.681082 23.8408 1.52244 23.8408H111.419C112.26 23.8408 112.942 24.5229 112.942 25.3642V87.872C112.942 88.7133 112.26 89.3954 111.419 89.3954H1.52244C0.681082 89.3954 -0.000976562 88.7133 -0.000976562 87.872V25.3642Z" fill="#B6A6F6"/>
<path d="M-0.000976562 18.1924C-0.000976562 17.351 0.681082 16.6689 1.52244 16.6689L66.6367 16.6689C67.2031 16.6689 67.7228 16.9832 67.9858 17.4849L71.1558 23.5297C71.6877 24.544 70.952 25.7606 69.8066 25.7606L1.52245 25.7606C0.681085 25.7606 -0.000976562 25.0785 -0.000976562 24.2372V18.1924Z" fill="#B6A6F6"/>
<path d="M10.8936 44.8096C10.8936 43.9682 11.5756 43.2861 12.417 43.2861H122.314C123.155 43.2861 123.837 43.9682 123.837 44.8096V107.317C123.837 108.159 123.155 108.841 122.314 108.841H12.417C11.5756 108.841 10.8936 108.159 10.8936 107.317V44.8096Z" fill="#CFFF63"/>
<path d="M10.8936 37.6377C10.8936 36.7963 11.5756 36.1143 12.417 36.1143L77.5312 36.1143C78.0976 36.1143 78.6173 36.4285 78.8804 36.9302L82.0503 42.975C82.5822 43.9894 81.8465 45.2059 80.7011 45.2059L12.417 45.2059C11.5756 45.2059 10.8936 44.5238 10.8936 43.6825V37.6377Z" fill="#CFFF63"/>
</svg>
