<svg width="311" height="547" viewBox="0 0 311 547" fill="none" xmlns="http://www.w3.org/2000/svg">
<path d="M72.4667 127.59C95.9563 127.59 114.999 108.548 114.999 85.0585C114.999 61.5688 95.9563 42.5266 72.4667 42.5266C48.977 42.5266 29.9348 61.5688 29.9348 85.0585C29.9348 108.548 48.977 127.59 72.4667 127.59Z" fill="#FF7550"/>
<path d="M267.485 196.502C290.975 196.502 310.017 177.46 310.017 153.97C310.017 130.48 290.975 111.438 267.485 111.438C243.996 111.438 224.953 130.48 224.953 153.97C224.953 177.46 243.996 196.502 267.485 196.502Z" fill="#FF7550"/>
<path d="M264.325 153.455C264.325 152.209 264.489 151.223 264.818 150.496C265.147 149.752 265.727 149.043 266.557 148.368L267.855 147.278C268.547 146.707 269.049 146.17 269.361 145.668C269.672 145.149 269.828 144.596 269.828 144.007C269.828 143.073 269.516 142.337 268.893 141.801C268.288 141.265 267.5 140.996 266.531 140.996C265.614 140.996 264.87 141.23 264.299 141.697C263.728 142.164 263.356 142.848 263.183 143.748H260.38C260.605 142.156 261.262 140.893 262.352 139.958C263.443 139.024 264.853 138.557 266.583 138.557C268.331 138.557 269.758 139.041 270.866 140.01C271.991 140.962 272.553 142.268 272.553 143.929C272.553 144.846 272.345 145.694 271.93 146.473C271.515 147.234 270.857 148.004 269.957 148.783L268.27 150.211C267.699 150.678 267.31 151.128 267.102 151.56C266.895 151.993 266.774 152.624 266.739 153.455H264.325ZM265.493 160.204C264.957 160.204 264.498 160.013 264.117 159.633C263.737 159.235 263.546 158.767 263.546 158.231C263.546 157.695 263.737 157.236 264.117 156.855C264.498 156.475 264.957 156.284 265.493 156.284C266.047 156.284 266.514 156.475 266.895 156.855C267.275 157.236 267.466 157.695 267.466 158.231C267.466 158.767 267.275 159.235 266.895 159.633C266.514 160.013 266.047 160.204 265.493 160.204Z" fill="#292C2D"/>
<path d="M259.553 131.212C283.043 131.212 302.085 112.17 302.085 88.6798C302.085 65.1901 283.043 46.1479 259.553 46.1479C236.063 46.1479 217.021 65.1901 217.021 88.6798C217.021 112.17 236.063 131.212 259.553 131.212Z" fill="#B6A6F6"/>
<path d="M195.132 101.221C218.622 101.221 237.664 82.179 237.664 58.6893C237.664 35.1996 218.622 16.1575 195.132 16.1575C171.643 16.1575 152.6 35.1996 152.6 58.6893C152.6 82.179 171.643 101.221 195.132 101.221Z" fill="#CFFF63"/>
<path d="M127.477 85.0637C150.967 85.0637 170.009 66.0216 170.009 42.5319C170.009 19.0422 150.967 0 127.477 0C103.988 0 84.9456 19.0422 84.9456 42.5319C84.9456 66.0216 103.988 85.0637 127.477 85.0637Z" fill="#4D57B9"/>
<path d="M42.5319 177.275C66.0216 177.275 85.0637 158.233 85.0637 134.743C85.0637 111.254 66.0216 92.2114 42.5319 92.2114C19.0422 92.2114 0 111.254 0 134.743C0 158.233 19.0422 177.275 42.5319 177.275Z" fill="#292C2D"/>
<path d="M259.553 252.424C283.043 252.424 302.085 233.382 302.085 209.892C302.085 186.403 283.043 167.36 259.553 167.36C236.063 167.36 217.021 186.403 217.021 209.892C217.021 233.382 236.063 252.424 259.553 252.424Z" fill="#292C2D"/>
<path d="M207.85 285.614C231.34 285.614 250.382 266.572 250.382 243.082C250.382 219.592 231.34 200.55 207.85 200.55C184.36 200.55 165.318 219.592 165.318 243.082C165.318 266.572 184.36 285.614 207.85 285.614Z" fill="#CFFF63" stroke="#CFFF63" stroke-width="0.229063" stroke-miterlimit="10"/>
<path d="M190.764 342.756C214.254 342.756 233.296 323.714 233.296 300.224C233.296 276.734 214.254 257.692 190.764 257.692C167.274 257.692 148.232 276.734 148.232 300.224C148.232 323.714 167.274 342.756 190.764 342.756Z" fill="#B6A6F6"/>
<path d="M148.229 445.816C171.719 445.816 190.761 426.774 190.761 403.284C190.761 379.794 171.719 360.752 148.229 360.752C124.739 360.752 105.697 379.794 105.697 403.284C105.697 426.774 124.739 445.816 148.229 445.816Z" fill="#FF7550"/>
<path d="M148.229 546.635C171.719 546.635 190.761 527.593 190.761 504.104C190.761 480.614 171.719 461.572 148.229 461.572C124.739 461.572 105.697 480.614 105.697 504.104C105.697 527.593 124.739 546.635 148.229 546.635Z" fill="#292C2D"/>
<path d="M145.018 507.003C145.018 505.757 145.182 504.771 145.511 504.044C145.84 503.3 146.42 502.59 147.25 501.916L148.548 500.825C149.24 500.254 149.742 499.718 150.053 499.216C150.365 498.697 150.521 498.143 150.521 497.555C150.521 496.621 150.209 495.885 149.586 495.349C148.98 494.812 148.193 494.544 147.224 494.544C146.307 494.544 145.563 494.778 144.992 495.245C144.421 495.712 144.049 496.396 143.876 497.296H141.073C141.298 495.704 141.955 494.44 143.045 493.506C144.135 492.572 145.546 492.104 147.276 492.104C149.024 492.104 150.451 492.589 151.559 493.558C152.683 494.51 153.246 495.816 153.246 497.477C153.246 498.394 153.038 499.242 152.623 500.021C152.208 500.782 151.55 501.552 150.65 502.331L148.963 503.758C148.392 504.226 148.003 504.676 147.795 505.108C147.588 505.541 147.466 506.172 147.432 507.003H145.018ZM146.186 513.751C145.649 513.751 145.191 513.561 144.81 513.18C144.43 512.782 144.239 512.315 144.239 511.779C144.239 511.242 144.43 510.784 144.81 510.403C145.191 510.022 145.649 509.832 146.186 509.832C146.74 509.832 147.207 510.022 147.588 510.403C147.968 510.784 148.159 511.242 148.159 511.779C148.159 512.315 147.968 512.782 147.588 513.18C147.207 513.561 146.74 513.751 146.186 513.751Z" fill="#FEFCF5"/>
<path d="M148.229 389.932C171.719 389.932 190.761 370.89 190.761 347.4C190.761 323.91 171.719 304.868 148.229 304.868C124.739 304.868 105.697 323.91 105.697 347.4C105.697 370.89 124.739 389.932 148.229 389.932Z" fill="#4D57B9"/>
<path d="M75.3843 94.85L73.1251 92.5102L78.8536 86.7817H59.2477V83.5544H78.8536L73.1251 77.8259L75.3843 75.4861L85.0662 85.168L75.3843 94.85Z" fill="#292C2D"/>
<path d="M33.574 129.855L36.8259 129.912V138.014L50.6894 124.15L52.9714 126.432L39.1079 140.296H47.2092L47.2663 143.548L33.574 143.548L33.574 129.855Z" fill="#FEFCF5"/>
<path d="M124.522 33.014L126.781 35.3538L121.053 41.0823L140.659 41.0823L140.659 44.3096L121.053 44.3096L126.781 50.0381L124.522 52.3779L114.84 42.696L124.522 33.014Z" fill="#FEFCF5"/>
<path d="M190.541 67.9671L190.598 64.7152L198.7 64.7152L184.836 50.8517L187.118 48.5696L200.982 62.4331L200.982 54.3318L204.234 54.2748L204.234 67.9671L190.541 67.9671Z" fill="#292C2D"/>
<path d="M256.328 79.2386L258.587 81.5784L252.858 87.3069L272.464 87.3069L272.464 90.5343L252.858 90.5342L258.587 96.2627L256.328 98.6025L246.646 88.9206L256.328 79.2386Z" fill="#292C2D"/>
<path d="M262.771 219.776L260.512 217.436L266.24 211.707H246.634V208.48H266.24L260.512 202.751L262.771 200.412L272.453 210.094L262.771 219.776Z" fill="#FEFCF5"/>
<path d="M200.279 235.396L203.406 236.292L201.309 244.118L218.288 234.315L219.902 237.11L202.923 246.913L210.748 249.009L209.961 252.165L196.736 248.621L200.279 235.396Z" fill="#292C2D"/>
<path d="M194.062 309.724L191.803 307.384L197.532 301.655H177.926V298.428H197.532L191.803 292.7L194.062 290.36L203.744 300.042L194.062 309.724Z" fill="#292C2D"/>
<path d="M143.799 415.983L143.856 412.731H151.957L138.094 398.868L140.376 396.586L154.239 410.449V402.348L157.491 402.291L157.491 415.983L143.799 415.983Z" fill="#292C2D"/>
<path d="M145.135 337.844L147.394 340.183L141.666 345.912L161.271 345.912L161.271 349.139L141.666 349.139L147.394 354.868L145.135 357.208L135.453 347.526L145.135 337.844Z" fill="#FEFCF5"/>
</svg>
