<svg width="1365" height="485" viewBox="0 0 1365 485" fill="none" xmlns="http://www.w3.org/2000/svg">
<path d="M1339.3 166.228L933.095 167.22C919.192 167.254 907.947 177.607 907.978 190.343L908.224 291.157C908.255 303.894 919.551 314.191 933.454 314.157L1339.66 313.165C1353.57 313.131 1364.81 302.779 1364.78 290.042L1364.53 189.228C1364.5 176.491 1353.21 166.194 1339.3 166.228Z" fill="#B6A6F6"/>
<path d="M1168.26 166.34L1048.12 166.633C1040.54 166.652 1034.4 172.813 1034.42 180.395L1034.71 300.486C1034.73 308.068 1040.9 314.199 1048.48 314.18L1168.62 313.887C1176.21 313.868 1182.34 307.707 1182.32 300.125L1182.03 180.034C1182.01 172.452 1175.85 166.321 1168.26 166.34Z" fill="#4D57B9"/>
<path d="M323.332 3.5304H209.404C187.299 3.5304 169.379 21.4428 169.379 43.5388V110.46C169.379 132.556 187.299 150.468 209.404 150.468H323.332C345.437 150.468 363.357 132.556 363.357 110.46V43.5388C363.357 21.4428 345.437 3.5304 323.332 3.5304Z" fill="#FEFCF5"/>
<path d="M156.942 166.169H43.0139C20.9088 166.169 2.98904 184.081 2.98904 206.177V273.098C2.98904 295.194 20.9088 313.106 43.0139 313.106H156.942C179.047 313.106 196.967 295.194 196.967 273.098V206.177C196.967 184.081 179.047 166.169 156.942 166.169Z" fill="#4D57B9"/>
<path d="M317.354 336.544H203.426C181.321 336.544 163.401 354.456 163.401 376.552V443.473C163.401 465.569 181.321 483.481 203.426 483.481H317.354C339.459 483.481 357.379 465.569 357.379 443.473V376.552C357.379 354.456 339.459 336.544 317.354 336.544Z" fill="#FEFCF5"/>
<path d="M737.344 0.774902H456.096C415.504 0.774902 382.597 33.668 382.597 74.2437C382.597 114.819 415.504 147.712 456.096 147.712H737.344C777.936 147.712 810.843 114.819 810.843 74.2437C810.843 33.668 777.936 0.774902 737.344 0.774902Z" fill="#FF7550"/>
<path d="M971.95 74.4616C971.95 33.8859 939.044 0.992859 898.451 0.992859C857.859 0.992859 824.952 33.8859 824.952 74.4616C824.952 115.037 857.859 147.93 898.451 147.93C939.044 147.93 971.95 115.037 971.95 74.4616Z" fill="#4D57B9"/>
<path d="M1291.28 0.993073H1061.5C1020.91 0.993073 988.003 33.8862 988.003 74.4618C988.003 115.038 1020.91 147.931 1061.5 147.931H1291.28C1331.88 147.931 1364.78 115.038 1364.78 74.4618C1364.78 33.8862 1331.88 0.993073 1291.28 0.993073Z" fill="#CFFF63"/>
<path d="M1291.29 148.146H1061.5C1020.86 148.146 987.793 115.09 987.793 74.4641C987.793 33.8384 1020.86 0.774902 1061.5 0.774902H1291.29C1331.94 0.774902 1365 33.8311 1365 74.4568C1365 115.083 1331.93 148.139 1291.29 148.139V148.146ZM1061.5 1.2085C1021.1 1.2085 988.219 34.0662 988.219 74.4641C988.219 114.862 1021.09 147.72 1061.5 147.72H1291.29C1331.69 147.72 1364.57 114.862 1364.57 74.4641C1364.57 34.0662 1331.69 1.2085 1291.29 1.2085H1061.5Z" fill="#CFFF63"/>
<path d="M1364.78 74.4616C1364.78 33.8859 1331.88 0.992859 1291.28 0.992859C1250.69 0.992859 1217.79 33.8859 1217.79 74.4616C1217.79 115.037 1250.69 147.93 1291.28 147.93C1331.88 147.93 1364.78 115.037 1364.78 74.4616Z" fill="#4D57B9"/>
<path d="M779.83 429.369V413.648H764.647V408.811H779.83V393.091H784.936V408.811H800.119V413.648H784.936V429.369H779.83Z" fill="#292C2D"/>
<path d="M147.208 411.227C147.208 370.651 114.302 337.758 73.7094 337.758C33.117 337.758 0.210365 370.651 0.210365 411.227C0.210365 451.803 33.117 484.696 73.7094 484.696C114.302 484.696 147.208 451.803 147.208 411.227Z" fill="#CFFF63"/>
<path d="M73.7122 484.904C33.0624 484.904 0 451.848 0 411.222C0 370.596 33.0698 337.54 73.7122 337.54C114.355 337.54 147.424 370.596 147.424 411.222C147.424 451.848 114.355 484.904 73.7122 484.904ZM73.7122 337.967C33.3051 337.967 0.426422 370.824 0.426422 411.222C0.426422 451.62 33.2977 484.478 73.7122 484.478C114.119 484.478 146.998 451.62 146.998 411.222C146.998 370.824 114.127 337.967 73.7122 337.967Z" fill="#CFFF63"/>
<path d="M1361.32 410.426C1361.32 370.172 1328.68 337.54 1288.43 337.54C1248.18 337.54 1215.54 370.172 1215.54 410.426C1215.54 450.68 1248.18 483.312 1288.43 483.312C1328.68 483.312 1361.32 450.68 1361.32 410.426Z" fill="#FF7550"/>
<path d="M1283.94 419.427C1283.94 416.621 1284.28 414.432 1284.95 412.861C1285.66 411.289 1286.93 409.793 1288.76 408.371L1291.51 406.182C1293.09 404.91 1294.23 403.695 1294.94 402.535C1295.65 401.337 1296 400.047 1296 398.662C1296 396.455 1295.27 394.734 1293.82 393.5C1292.36 392.227 1290.49 391.591 1288.2 391.591C1286.03 391.591 1284.29 392.134 1282.98 393.219C1281.67 394.266 1280.81 395.819 1280.4 397.877H1275.35C1275.8 394.584 1277.17 391.966 1279.45 390.02C1281.77 388.075 1284.74 387.102 1288.37 387.102C1292.04 387.102 1295.05 388.131 1297.41 390.188C1299.76 392.209 1300.94 394.996 1300.94 398.55C1300.94 400.571 1300.47 402.422 1299.54 404.106C1298.6 405.79 1297.15 407.454 1295.16 409.101L1291.51 412.075C1290.28 413.085 1289.44 414.077 1288.99 415.049C1288.54 416.022 1288.28 417.481 1288.2 419.427H1283.94ZM1285.96 433.905C1284.91 433.905 1283.99 433.531 1283.21 432.783C1282.46 431.997 1282.09 431.081 1282.09 430.033C1282.09 428.948 1282.46 428.032 1283.21 427.283C1283.99 426.535 1284.91 426.161 1285.96 426.161C1287.04 426.161 1287.96 426.535 1288.71 427.283C1289.46 428.032 1289.83 428.948 1289.83 430.033C1289.83 431.081 1289.46 431.997 1288.71 432.783C1287.96 433.531 1287.04 433.905 1285.96 433.905Z" fill="#292C2D"/>
<path d="M1126.68 337.54H1081.19C1040.94 337.54 1008.3 370.172 1008.3 410.426C1008.3 450.68 1040.94 483.312 1081.19 483.312H1126.68C1166.94 483.312 1199.57 450.68 1199.57 410.426C1199.57 370.172 1166.94 337.54 1126.68 337.54Z" fill="#FEFCF5"/>
<path d="M1059.39 433.673C1055.42 433.673 1052.2 432.701 1049.73 430.755C1047.27 428.772 1045.92 426.153 1045.69 422.899H1050.74C1050.97 424.956 1051.83 426.546 1053.33 427.669C1054.86 428.754 1056.94 429.296 1059.56 429.296C1061.99 429.296 1063.84 428.828 1065.11 427.893C1066.38 426.92 1067.02 425.555 1067.02 423.796C1067.02 421.065 1065.13 419.288 1061.35 418.465L1056.02 417.343C1050.03 416.071 1047.04 413.115 1047.04 408.476C1047.04 405.558 1048.13 403.201 1050.3 401.405C1052.47 399.572 1055.31 398.655 1058.83 398.655C1062.27 398.655 1065.13 399.59 1067.41 401.461C1069.73 403.294 1071.06 405.763 1071.4 408.869H1066.46C1066.08 406.998 1065.2 405.558 1063.82 404.548C1062.47 403.537 1060.75 403.032 1058.66 403.032C1056.56 403.032 1054.88 403.5 1053.61 404.435C1052.37 405.333 1051.75 406.568 1051.75 408.139C1051.75 409.411 1052.2 410.44 1053.1 411.226C1054 411.974 1055.42 412.554 1057.37 412.965L1062.7 414.088C1065.69 414.724 1067.94 415.828 1069.43 417.399C1070.97 418.933 1071.73 420.934 1071.73 423.404C1071.73 426.546 1070.63 429.053 1068.42 430.924C1066.21 432.757 1063.2 433.673 1059.39 433.673ZM1093.52 433.673C1090.52 433.673 1087.85 432.963 1085.49 431.541C1083.13 430.082 1081.28 428.043 1079.94 425.424C1078.59 422.768 1077.91 419.644 1077.91 416.052C1077.91 412.498 1078.57 409.43 1079.88 406.848C1081.23 404.23 1083.04 402.209 1085.32 400.788C1087.64 399.366 1090.26 398.655 1093.18 398.655C1095.95 398.655 1098.4 399.291 1100.53 400.563C1102.66 401.835 1104.35 403.65 1105.58 406.007C1106.82 408.326 1107.43 411.076 1107.43 414.256V416.782H1082.74C1082.89 420.523 1083.94 423.516 1085.88 425.761C1087.87 427.968 1090.39 429.072 1093.46 429.072C1095.63 429.072 1097.48 428.529 1099.02 427.444C1100.59 426.322 1101.63 424.825 1102.16 422.955H1107.32C1106.84 425.199 1105.94 427.126 1104.63 428.735C1103.32 430.306 1101.71 431.522 1099.8 432.383C1097.93 433.243 1095.84 433.673 1093.52 433.673ZM1083.02 412.741H1102.55C1102.29 409.748 1101.3 407.41 1099.58 405.726C1097.89 404.005 1095.74 403.145 1093.12 403.145C1090.5 403.145 1088.3 404.005 1086.5 405.726C1084.71 407.41 1083.55 409.748 1083.02 412.741ZM1116.55 433V399.328H1121.6V433H1116.55ZM1119.07 394.278C1118.14 394.278 1117.33 393.96 1116.66 393.324C1116.02 392.65 1115.71 391.846 1115.71 390.911C1115.71 389.975 1116.02 389.19 1116.66 388.554C1117.33 387.88 1118.14 387.543 1119.07 387.543C1120.01 387.543 1120.79 387.88 1121.43 388.554C1122.1 389.19 1122.44 389.975 1122.44 390.911C1122.44 391.846 1122.1 392.65 1121.43 393.324C1120.79 393.96 1120.01 394.278 1119.07 394.278ZM1132.57 433V399.328H1137.62V404.94H1137.84C1138.81 402.92 1140.2 401.386 1141.99 400.339C1143.79 399.254 1145.89 398.711 1148.28 398.711C1150.75 398.711 1152.92 399.291 1154.79 400.451C1156.66 401.611 1158.12 403.219 1159.17 405.277C1160.21 407.297 1160.74 409.636 1160.74 412.292V433H1155.69V413.078C1155.69 410.047 1154.88 407.672 1153.27 405.951C1151.7 404.192 1149.5 403.313 1146.65 403.313C1143.81 403.313 1141.58 404.192 1139.97 405.951C1138.4 407.672 1137.62 410.047 1137.62 413.078V433H1132.57Z" fill="#292C2D"/>
<path d="M819.75 171.15H279.221C241.118 171.15 210.229 203.714 210.229 243.884C210.229 284.053 241.118 316.617 279.221 316.617H819.75C857.853 316.617 888.742 284.053 888.742 243.884C888.742 203.714 857.853 171.15 819.75 171.15Z" fill="#B6A6F6"/>
<path d="M304.398 266V220.543H318.035C322.599 220.543 326.546 221.46 329.876 223.293C333.243 225.126 335.843 227.745 337.676 231.15C339.51 234.555 340.426 238.595 340.426 243.272C340.426 247.911 339.51 251.933 337.676 255.337C335.843 258.742 333.243 261.38 329.876 263.25C326.546 265.083 322.599 266 318.035 266H304.398ZM309.561 261.398H318.035C321.738 261.398 324.862 260.65 327.406 259.153C329.951 257.62 331.877 255.506 333.187 252.812C334.496 250.081 335.151 246.901 335.151 243.272C335.151 237.809 333.692 233.432 330.774 230.14C327.855 226.81 323.609 225.145 318.035 225.145H309.561V261.398ZM357.305 266.617C354.013 266.617 351.319 265.682 349.224 263.811C347.166 261.941 346.137 259.528 346.137 256.572C346.137 253.429 347.147 250.979 349.168 249.22C351.225 247.462 354.125 246.583 357.866 246.583H368.248V244.787C368.248 242.018 367.519 239.886 366.059 238.389C364.638 236.893 362.618 236.145 359.999 236.145C357.829 236.145 356.052 236.65 354.667 237.66C353.283 238.633 352.385 240.035 351.974 241.869H346.811C347.297 238.763 348.756 236.294 351.188 234.461C353.62 232.59 356.613 231.655 360.167 231.655C364.208 231.655 367.369 232.777 369.651 235.022C371.933 237.23 373.074 240.354 373.074 244.394V266H368.248V259.771H368.024C367.163 261.866 365.76 263.531 363.815 264.765C361.869 266 359.699 266.617 357.305 266.617ZM358.315 262.24C360.186 262.24 361.869 261.81 363.366 260.949C364.862 260.051 366.041 258.854 366.901 257.358C367.799 255.824 368.248 254.121 368.248 252.251V250.623H358.259C355.827 250.623 353.975 251.128 352.703 252.139C351.468 253.149 350.851 254.552 350.851 256.347C350.851 258.143 351.525 259.584 352.871 260.669C354.218 261.716 356.033 262.24 358.315 262.24ZM389.962 266C388.465 266 387.287 265.607 386.426 264.821C385.566 263.998 385.136 262.782 385.136 261.174V236.369H379.243V232.328H385.192V222.227H390.13V232.328H398.548V236.369H390.186V261.959H399.334V266H389.962ZM419.739 266.673C416.746 266.673 414.071 265.963 411.714 264.541C409.357 263.082 407.505 261.043 406.158 258.424C404.812 255.768 404.138 252.644 404.138 249.052C404.138 245.498 404.793 242.43 406.102 239.848C407.449 237.23 409.264 235.209 411.546 233.788C413.865 232.366 416.484 231.655 419.403 231.655C422.171 231.655 424.622 232.291 426.754 233.563C428.887 234.835 430.57 236.65 431.805 239.007C433.04 241.326 433.657 244.076 433.657 247.256V249.782H408.964C409.114 253.523 410.162 256.516 412.107 258.761C414.09 260.968 416.615 262.072 419.683 262.072C421.853 262.072 423.705 261.529 425.239 260.444C426.81 259.322 427.858 257.825 428.382 255.955H433.545C433.058 258.199 432.16 260.126 430.851 261.735C429.541 263.306 427.933 264.522 426.025 265.383C424.154 266.243 422.059 266.673 419.739 266.673ZM409.245 245.741H428.775C428.513 242.748 427.521 240.41 425.8 238.726C424.117 237.005 421.965 236.145 419.346 236.145C416.728 236.145 414.52 237.005 412.724 238.726C410.929 240.41 409.769 242.748 409.245 245.741ZM442.546 266V232.328H447.596V237.94H447.821C448.794 235.92 450.178 234.386 451.974 233.339C453.769 232.254 455.865 231.711 458.259 231.711C460.728 231.711 462.898 232.291 464.769 233.451C466.639 234.611 468.099 236.219 469.146 238.277C470.194 240.297 470.717 242.636 470.717 245.292V266H465.667V246.078C465.667 243.047 464.862 240.672 463.254 238.951C461.682 237.192 459.475 236.313 456.632 236.313C453.788 236.313 451.562 237.192 449.953 238.951C448.382 240.672 447.596 243.047 447.596 246.078V266H442.546ZM481.281 266V218.86H486.332V248.491H486.556L502.214 232.328H508.331L494.245 246.583L509.677 266H503.448L490.765 249.725L486.332 253.654V266H481.281ZM528.054 266.673C525.061 266.673 522.386 265.963 520.029 264.541C517.672 263.082 515.82 261.043 514.473 258.424C513.126 255.805 512.453 252.718 512.453 249.164C512.453 245.573 513.126 242.467 514.473 239.848C515.82 237.23 517.672 235.209 520.029 233.788C522.386 232.366 525.061 231.655 528.054 231.655C531.122 231.655 533.815 232.366 536.135 233.788C538.492 235.209 540.325 237.23 541.635 239.848C542.982 242.467 543.655 245.573 543.655 249.164C543.655 252.718 542.982 255.824 541.635 258.48C540.325 261.099 538.492 263.119 536.135 264.541C533.778 265.963 531.084 266.673 528.054 266.673ZM528.054 262.072C531.309 262.072 533.872 260.893 535.742 258.536C537.65 256.179 538.604 253.055 538.604 249.164C538.604 245.236 537.65 242.112 535.742 239.792C533.872 237.435 531.309 236.257 528.054 236.257C524.874 236.257 522.311 237.435 520.365 239.792C518.457 242.112 517.503 245.236 517.503 249.164C517.503 253.055 518.457 256.179 520.365 258.536C522.311 260.893 524.874 262.072 528.054 262.072ZM552.504 266V232.328H557.555V237.94H557.779C558.603 235.92 559.856 234.386 561.539 233.339C563.223 232.254 565.225 231.711 567.544 231.711C569.864 231.711 571.922 232.291 573.717 233.451C575.513 234.573 576.879 236.219 577.814 238.389H577.982C579.03 236.219 580.452 234.573 582.247 233.451C584.081 232.291 586.176 231.711 588.533 231.711C590.89 231.711 592.948 232.254 594.706 233.339C596.502 234.424 597.886 235.957 598.859 237.94C599.832 239.923 600.318 242.262 600.318 244.955V266H595.267V245.629C595.267 242.673 594.538 240.391 593.078 238.782C591.657 237.136 589.674 236.313 587.13 236.313C584.623 236.313 582.622 237.136 581.125 238.782C579.666 240.391 578.936 242.673 578.936 245.629V266H573.886V245.629C573.886 242.673 573.156 240.391 571.697 238.782C570.275 237.136 568.292 236.313 565.748 236.313C563.242 236.313 561.24 237.136 559.744 238.782C558.285 240.391 557.555 242.673 557.555 245.629V266H552.504ZM610.838 279.469V232.328H615.888V238.053H616.113C618.058 233.788 621.594 231.655 626.719 231.655C629.525 231.655 631.976 232.385 634.071 233.844C636.166 235.303 637.794 237.342 638.953 239.961C640.113 242.58 640.693 245.647 640.693 249.164C640.693 252.644 640.113 255.711 638.953 258.368C637.794 260.987 636.166 263.026 634.071 264.485C631.976 265.944 629.525 266.673 626.719 266.673C621.594 266.673 618.058 264.541 616.113 260.276H615.888V279.469H610.838ZM625.429 262.184C628.534 262.184 631.003 261.005 632.836 258.648C634.707 256.254 635.642 253.093 635.642 249.164C635.642 245.236 634.707 242.093 632.836 239.736C631.003 237.342 628.534 236.145 625.429 236.145C622.398 236.145 620.041 237.099 618.358 239.007C616.711 240.915 615.888 243.384 615.888 246.414V251.914C615.888 254.945 616.711 257.395 618.358 259.266C620.041 261.136 622.398 262.109 625.429 262.184ZM663.266 266.673C660.273 266.673 657.598 265.963 655.241 264.541C652.884 263.082 651.032 261.043 649.685 258.424C648.338 255.768 647.665 252.644 647.665 249.052C647.665 245.498 648.32 242.43 649.629 239.848C650.976 237.23 652.791 235.209 655.073 233.788C657.392 232.366 660.011 231.655 662.929 231.655C665.698 231.655 668.149 232.291 670.281 233.563C672.414 234.835 674.097 236.65 675.332 239.007C676.566 241.326 677.184 244.076 677.184 247.256V249.782H652.491C652.641 253.523 653.688 256.516 655.634 258.761C657.617 260.968 660.142 262.072 663.21 262.072C665.38 262.072 667.232 261.529 668.766 260.444C670.337 259.322 671.385 257.825 671.909 255.955H677.071C676.585 258.199 675.687 260.126 674.378 261.735C673.068 263.306 671.46 264.522 669.552 265.383C667.681 266.243 665.586 266.673 663.266 266.673ZM652.772 245.741H672.301C672.039 242.748 671.048 240.41 669.327 238.726C667.643 237.005 665.492 236.145 662.873 236.145C660.254 236.145 658.047 237.005 656.251 238.726C654.455 240.41 653.296 242.748 652.772 245.741ZM692.414 266C690.917 266 689.739 265.607 688.878 264.821C688.018 263.998 687.588 262.782 687.588 261.174V236.369H681.695V232.328H687.644V222.227H692.582V232.328H701V236.369H692.638V261.959H701.786V266H692.414ZM722.191 266.673C719.198 266.673 716.523 265.963 714.166 264.541C711.809 263.082 709.957 261.043 708.61 258.424C707.264 255.768 706.59 252.644 706.59 249.052C706.59 245.498 707.245 242.43 708.554 239.848C709.901 237.23 711.716 235.209 713.998 233.788C716.318 232.366 718.936 231.655 721.855 231.655C724.623 231.655 727.074 232.291 729.206 233.563C731.339 234.835 733.022 236.65 734.257 239.007C735.492 241.326 736.109 244.076 736.109 247.256V249.782H711.416C711.566 253.523 712.614 256.516 714.559 258.761C716.542 260.968 719.067 262.072 722.135 262.072C724.305 262.072 726.157 261.529 727.691 260.444C729.262 259.322 730.31 257.825 730.834 255.955H735.997C735.51 258.199 734.612 260.126 733.303 261.735C731.994 263.306 730.385 264.522 728.477 265.383C726.606 266.243 724.511 266.673 722.191 266.673ZM711.697 245.741H731.227C730.965 242.748 729.973 240.41 728.252 238.726C726.569 237.005 724.417 236.145 721.799 236.145C719.18 236.145 716.972 237.005 715.176 238.726C713.381 240.41 712.221 242.748 711.697 245.741ZM744.998 266V232.328H750.048V237.94H750.273C751.246 235.92 752.63 234.386 754.426 233.339C756.222 232.254 758.317 231.711 760.711 231.711C763.18 231.711 765.35 232.291 767.221 233.451C769.092 234.611 770.551 236.219 771.598 238.277C772.646 240.297 773.17 242.636 773.17 245.292V266H768.119V246.078C768.119 243.047 767.314 240.672 765.706 238.951C764.134 237.192 761.927 236.313 759.084 236.313C756.24 236.313 754.014 237.192 752.405 238.951C750.834 240.672 750.048 243.047 750.048 246.078V266H744.998ZM781.376 266V262.296L800.681 236.481H782.386V232.328H806.405V236.032L787.1 261.847H806.742V266H781.376Z" fill="#292C2D"/>
<rect x="988.376" y="337.54" width="146.463" height="609.765" rx="73.2315" transform="rotate(90 988.376 337.54)" fill="#CFFF63"/>
<path d="M447.387 431V397.328H452.438V402.94H452.663C453.635 400.92 455.02 399.386 456.815 398.339C458.611 397.254 460.706 396.711 463.101 396.711C465.57 396.711 467.74 397.291 469.611 398.451C471.481 399.611 472.94 401.219 473.988 403.277C475.036 405.297 475.559 407.636 475.559 410.292V431H470.509V411.078C470.509 408.047 469.704 405.672 468.095 403.951C466.524 402.192 464.317 401.313 461.473 401.313C458.63 401.313 456.404 402.192 454.795 403.951C453.224 405.672 452.438 408.047 452.438 411.078V431H447.387ZM498.189 431.617C495.757 431.617 493.605 431.056 491.735 429.934C489.902 428.811 488.461 427.259 487.414 425.276C486.403 423.256 485.898 420.955 485.898 418.373V397.328H490.949V417.251C490.949 420.281 491.716 422.676 493.25 424.434C494.784 426.155 496.916 427.016 499.648 427.016C502.454 427.016 504.717 426.118 506.438 424.322C508.159 422.526 509.02 420.169 509.02 417.251V397.328H514.07V431H509.02V424.995H508.795C507.86 427.128 506.475 428.774 504.642 429.934C502.809 431.056 500.658 431.617 498.189 431.617ZM506.663 392.222C505.765 392.222 504.979 391.904 504.306 391.268C503.669 390.594 503.351 389.808 503.351 388.911C503.351 388.013 503.669 387.246 504.306 386.61C504.979 385.936 505.765 385.6 506.663 385.6C507.56 385.6 508.327 385.936 508.963 386.61C509.637 387.246 509.974 388.013 509.974 388.911C509.974 389.808 509.637 390.594 508.963 391.268C508.327 391.904 507.56 392.222 506.663 392.222ZM493.531 392.222C492.633 392.222 491.847 391.904 491.174 391.268C490.538 390.594 490.22 389.808 490.22 388.911C490.22 388.013 490.538 387.246 491.174 386.61C491.847 385.936 492.633 385.6 493.531 385.6C494.429 385.6 495.195 385.936 495.832 386.61C496.505 387.246 496.842 388.013 496.842 388.911C496.842 389.808 496.505 390.594 495.832 391.268C495.195 391.904 494.429 392.222 493.531 392.222ZM531.2 431C529.703 431 528.525 430.607 527.664 429.821C526.804 428.998 526.374 427.782 526.374 426.174V401.369H520.481V397.328H526.43V387.227H531.368V397.328H539.786V401.369H531.424V426.959H540.572V431H531.2ZM547.755 431V427.296L567.06 401.481H548.765V397.328H572.784V401.032L553.479 426.847H573.121V431H547.755ZM581.772 431V383.86H586.823V431H581.772ZM598.016 431V397.328H603.067V431H598.016ZM600.541 392.278C599.606 392.278 598.802 391.96 598.128 391.324C597.492 390.65 597.174 389.846 597.174 388.911C597.174 387.975 597.492 387.19 598.128 386.554C598.802 385.88 599.606 385.543 600.541 385.543C601.477 385.543 602.262 385.88 602.898 386.554C603.572 387.19 603.908 387.975 603.908 388.911C603.908 389.846 603.572 390.65 602.898 391.324C602.262 391.96 601.477 392.278 600.541 392.278ZM627.616 431.673C624.661 431.673 622.004 430.963 619.647 429.541C617.328 428.082 615.494 426.043 614.148 423.424C612.801 420.805 612.127 417.718 612.127 414.164C612.127 410.573 612.801 407.467 614.148 404.848C615.494 402.23 617.328 400.209 619.647 398.788C622.004 397.366 624.661 396.655 627.616 396.655C629.861 396.655 631.937 397.085 633.845 397.946C635.753 398.769 637.381 400.041 638.728 401.762C640.075 403.445 641.029 405.597 641.59 408.216H636.315C635.716 405.784 634.631 404.025 633.06 402.94C631.526 401.818 629.711 401.257 627.616 401.257C624.473 401.257 621.948 402.435 620.04 404.792C618.132 407.112 617.178 410.236 617.178 414.164C617.178 418.055 618.132 421.179 620.04 423.536C621.948 425.893 624.473 427.072 627.616 427.072C629.824 427.072 631.713 426.473 633.284 425.276C634.893 424.079 635.997 422.171 636.595 419.552H641.758C641.234 422.245 640.28 424.49 638.896 426.286C637.549 428.082 635.903 429.429 633.958 430.327C632.05 431.224 629.936 431.673 627.616 431.673ZM648.825 431V383.86H653.876V402.379H654.1C655.073 400.621 656.457 399.237 658.253 398.226C660.049 397.179 662.144 396.655 664.538 396.655C667.007 396.655 669.177 397.235 671.048 398.395C672.919 399.517 674.378 401.107 675.425 403.165C676.473 405.185 676.997 407.542 676.997 410.236V431H671.946V410.853C671.946 407.785 671.142 405.41 669.533 403.726C667.962 402.005 665.754 401.145 662.911 401.145C660.067 401.145 657.841 402.005 656.233 403.726C654.661 405.41 653.876 407.785 653.876 410.853V431H648.825Z" fill="#292C2D"/>
<path d="M218.092 102.647V55.5069H223.143V85.1378H223.367L239.024 68.9755H245.141L231.056 83.2298L246.488 102.647H240.259L227.576 86.3725L223.143 90.3008V102.647H218.092ZM260.238 103.264C256.945 103.264 254.252 102.329 252.156 100.458C250.099 98.5877 249.07 96.1746 249.07 93.219C249.07 90.0763 250.08 87.6258 252.1 85.8674C254.158 84.109 257.057 83.2298 260.799 83.2298H271.181V81.434C271.181 78.6654 270.451 76.5329 268.992 75.0364C267.57 73.5399 265.55 72.7916 262.931 72.7916C260.761 72.7916 258.984 73.2967 257.6 74.3068C256.216 75.2795 255.318 76.6825 254.906 78.5158H249.743C250.23 75.4105 251.689 72.9412 254.121 71.108C256.552 69.2374 259.545 68.3021 263.1 68.3021C267.14 68.3021 270.302 69.4244 272.584 71.6692C274.866 73.8766 276.007 77.0005 276.007 81.0411V102.647H271.181V96.4178H270.956C270.096 98.5129 268.693 100.178 266.747 101.412C264.802 102.647 262.632 103.264 260.238 103.264ZM261.248 98.887C263.118 98.887 264.802 98.4568 266.298 97.5963C267.795 96.6984 268.973 95.5012 269.834 94.0047C270.732 92.4707 271.181 90.7685 271.181 88.8978V87.2704H261.192C258.76 87.2704 256.908 87.7754 255.636 88.7856C254.401 89.7957 253.784 91.1987 253.784 92.9945C253.784 94.7903 254.457 96.2307 255.804 97.3157C257.151 98.3633 258.966 98.887 261.248 98.887ZM286.553 102.647V68.9755H291.604V74.5874H291.828C292.801 72.5671 294.185 71.0332 295.981 69.9856C297.777 68.9007 299.872 68.3582 302.266 68.3582C304.736 68.3582 306.906 68.9381 308.776 70.0979C310.647 71.2577 312.106 72.8664 313.154 74.9241C314.201 76.9444 314.725 79.2827 314.725 81.939V102.647H309.674V82.7247C309.674 79.6943 308.87 77.3185 307.261 75.5976C305.69 73.8392 303.482 72.96 300.639 72.96C297.796 72.96 295.57 73.8392 293.961 75.5976C292.389 77.3185 291.604 79.6943 291.604 82.7247V102.647H286.553Z" fill="#292C2D"/>
<path d="M151.75 73.6609C151.75 33.4071 119.118 0.774902 78.8641 0.774902C38.6103 0.774902 5.97813 33.4071 5.97813 73.6609C5.97813 113.915 38.6103 146.547 78.8641 146.547C119.118 146.547 151.75 113.915 151.75 73.6609Z" fill="#FF7550"/>
<path d="M37.4728 94.396L25.7439 48.9394H31.2436L40.391 87.9984H40.6155L51.1098 48.9394H56.4972L67.4966 87.9984H67.7211L76.8124 48.9394H82.3121L70.5831 94.396H64.859L53.8596 55.1687H53.6351L43.1969 94.396H37.4728ZM89.9706 94.396V60.7245H95.0213V94.396H89.9706ZM92.496 55.6737C91.5606 55.6737 90.7563 55.3557 90.0828 54.7197C89.4468 54.0463 89.1288 53.2419 89.1288 52.3066C89.1288 51.3713 89.4468 50.5856 90.0828 49.9496C90.7563 49.2762 91.5606 48.9394 92.496 48.9394C93.4313 48.9394 94.2169 49.2762 94.853 49.9496C95.5264 50.5856 95.8631 51.3713 95.8631 52.3066C95.8631 53.2419 95.5264 54.0463 94.853 54.7197C94.2169 55.3557 93.4313 55.6737 92.496 55.6737ZM119.683 95.0695C116.69 95.0695 114.015 94.3586 111.658 92.9369C109.301 91.4778 107.449 89.4388 106.102 86.8199C104.755 84.1636 104.082 81.0396 104.082 77.448C104.082 73.8938 104.737 70.8259 106.046 68.2445C107.393 65.6256 109.208 63.6053 111.49 62.1836C113.809 60.7619 116.428 60.051 119.346 60.051C122.115 60.051 124.565 60.6871 126.698 61.9591C128.831 63.2311 130.514 65.0457 131.749 67.4027C132.983 69.7223 133.601 72.4721 133.601 75.6522V78.1776H108.908C109.058 81.9188 110.105 84.9119 112.051 87.1566C114.034 89.364 116.559 90.4677 119.627 90.4677C121.797 90.4677 123.649 89.9252 125.183 88.8402C126.754 87.7178 127.802 86.2213 128.325 84.3507H133.488C133.002 86.5955 132.104 88.5222 130.795 90.131C129.485 91.7023 127.877 92.9182 125.968 93.7787C124.098 94.6392 122.003 95.0695 119.683 95.0695ZM109.189 74.137H128.718C128.456 71.144 127.465 68.8057 125.744 67.1221C124.06 65.4011 121.909 64.5406 119.29 64.5406C116.671 64.5406 114.464 65.4011 112.668 67.1221C110.872 68.8057 109.713 71.144 109.189 74.137Z" fill="#292C2D"/>
<path d="M916.945 410.426C916.945 370.172 884.313 337.54 844.059 337.54C803.805 337.54 771.173 370.172 771.173 410.426C771.173 450.68 803.805 483.312 844.059 483.312C884.313 483.312 916.945 450.68 916.945 410.426Z" fill="#4D57B9"/>
</svg>
