<svg width="21" height="22" viewBox="0 0 21 22" fill="none" xmlns="http://www.w3.org/2000/svg">
<path d="M13.6499 10.7813C13.6499 12.5186 12.2374 13.9312 10.5 13.9312C8.76264 13.9312 7.3501 12.5186 7.3501 10.7813C7.3501 9.04391 8.76264 7.63137 10.5 7.63137C12.2374 7.63137 13.6499 9.04391 13.6499 10.7813ZM21 3.43117V18.1304C21 19.8677 19.5875 21.2803 17.8501 21.2803L3.1499 21.2812C1.41254 21.2812 0 19.8687 0 18.1313V3.43115C0 1.69379 1.41254 0.28125 3.1499 0.28125H17.8491C19.5865 0.28125 21 1.6948 21 3.43117ZM15.7495 10.7813C15.7495 7.88639 13.394 5.53178 10.5 5.53178C7.60512 5.53178 5.2505 7.88732 5.2505 10.7813C5.2505 13.6762 7.60605 16.0308 10.5 16.0308C13.3949 16.0308 15.7495 13.6762 15.7495 10.7813ZM17.8501 4.48147C17.8501 4.41848 17.8392 4.34465 17.8294 4.27082C17.8186 4.20783 17.7979 4.14483 17.7664 4.08183C17.7447 4.01982 17.7133 3.95682 17.6709 3.89382C17.6394 3.84067 17.5873 3.7885 17.5449 3.73633C17.4396 3.64183 17.3343 3.568 17.1984 3.51583C16.9464 3.41149 16.6521 3.41149 16.4001 3.51583C16.2633 3.56899 16.159 3.64183 16.0536 3.73633C15.8656 3.93516 15.7495 4.19798 15.7495 4.48147C15.7495 4.76496 15.8647 5.02779 16.0536 5.22661C16.2535 5.4156 16.5261 5.53174 16.7998 5.53174C17.0724 5.53174 17.3461 5.41559 17.5449 5.22759C17.5872 5.17444 17.6394 5.12227 17.6709 5.06911C17.7132 5.00611 17.7447 4.94311 17.7654 4.88012C17.7969 4.81712 17.8176 4.75412 17.8284 4.69112C17.8392 4.61828 17.8501 4.55432 17.8501 4.48147Z" fill="#292C2D"/>
</svg>
