<svg width="39" height="56" viewBox="0 0 39 56" fill="none" xmlns="http://www.w3.org/2000/svg">
<path d="M14.1956 45.1176C12.738 45.1176 11.4927 44.5969 10.4599 43.5555C9.42758 42.5146 8.91141 41.2592 8.91141 39.7895V35.0847C6.26554 33.3016 4.20356 31.0061 2.72545 28.1982C1.24686 25.3908 0.507568 22.3867 0.507568 19.1859C0.507568 13.8546 2.35227 9.324 6.04168 5.5941C9.7311 1.8647 14.2197 0 19.5076 0C24.7954 0 29.284 1.86003 32.9735 5.5801C36.6629 9.30017 38.5076 13.8261 38.5076 19.1579C38.5076 22.3774 37.7683 25.3832 36.2897 28.1754C34.8116 30.968 32.7496 33.2711 30.1037 35.0847V39.7895C30.1037 41.2592 29.5876 42.5146 28.5552 43.5555C27.5224 44.5969 26.2772 45.1176 24.8195 45.1176H14.1956ZM14.1956 40.6965H24.8195C25.0821 40.6965 25.2977 40.6115 25.4663 40.4416C25.6348 40.2716 25.7191 40.0542 25.7191 39.7895V32.7556L27.8383 31.2421C29.8173 29.848 31.3594 28.0872 32.4648 25.9597C33.5702 23.8322 34.123 21.5649 34.123 19.1579C34.123 15.0807 32.698 11.6053 29.848 8.73158C26.998 5.8579 23.5512 4.42105 19.5076 4.42105C15.464 4.42105 12.0172 5.8579 9.16718 8.73158C6.31718 11.6053 4.89218 15.0807 4.89218 19.1579C4.89218 21.5649 5.44489 23.8322 6.5503 25.9597C7.65571 28.0872 9.19788 29.848 11.1768 31.2421L13.296 32.7556V39.7895C13.296 40.0542 13.3803 40.2716 13.5489 40.4416C13.7174 40.6115 13.933 40.6965 14.1956 40.6965ZM13.9143 56C13.2921 56 12.7713 55.7883 12.3519 55.3648C11.9319 54.9419 11.722 54.4168 11.722 53.7895V51.5789H27.2932V53.7895C27.2932 54.4168 27.0832 54.9419 26.6633 55.3648C26.2438 55.7883 25.723 56 25.1009 56H13.9143Z" fill="#292C2D"/>
</svg>
