<svg width="23" height="24" viewBox="0 0 23 24" fill="none" xmlns="http://www.w3.org/2000/svg">
<path d="M5.67204 8.31836H0.995117V23.2328H5.67204V8.31836Z" fill="#292C2D"/>
<path d="M18.3221 7.99083C18.1497 7.96927 17.9665 7.9585 17.7833 7.94772C15.1647 7.83996 13.6883 9.39175 13.1711 10.0599C13.031 10.2431 12.9663 10.3508 12.9663 10.3508V8.35722H8.49414V23.2716H12.9663H13.1711C13.1711 21.7522 13.1711 20.2435 13.1711 18.724C13.1711 17.905 13.1711 17.086 13.1711 16.267C13.1711 15.2541 13.0956 14.1764 13.6021 13.2497C14.0332 12.4738 14.809 12.0858 15.6819 12.0858C18.2682 12.0858 18.3221 14.4243 18.3221 14.6398C18.3221 14.6506 18.3221 14.6614 18.3221 14.6614V23.3363H22.999V13.6053C22.999 10.2754 21.3072 8.31412 18.3221 7.99083Z" fill="#292C2D"/>
<path d="M3.33281 6.38731C4.83261 6.38731 6.04845 5.17148 6.04845 3.67168C6.04845 2.17188 4.83261 0.956055 3.33281 0.956055C1.83301 0.956055 0.617188 2.17188 0.617188 3.67168C0.617188 5.17148 1.83301 6.38731 3.33281 6.38731Z" fill="#292C2D"/>
</svg>
