<svg width="136" height="36" viewBox="0 0 136 36" fill="none" xmlns="http://www.w3.org/2000/svg">
<path d="M132.224 33.8158H103.556C101.83 33.8158 100.43 32.4148 100.43 30.6896V4.60282C100.43 2.87754 101.83 1.47656 103.556 1.47656H132.224C133.949 1.47656 135.35 2.87754 135.35 4.60282V30.6896C135.35 32.4148 133.949 33.8158 132.224 33.8158Z" fill="#FF7550"/>
<path d="M17.4085 35.0864C27.0229 35.0864 34.8169 27.2924 34.8169 17.678C34.8169 8.06356 27.0229 0.269531 17.4085 0.269531C7.79403 0.269531 0 8.06356 0 17.678C0 27.2924 7.79403 35.0864 17.4085 35.0864Z" fill="#CFFF63"/>
<path d="M7.05469 28.044L15.5124 6.16016H19.4041L27.758 28.044H23.9443L21.7909 22.0379H13.0088L10.7647 28.044H7.05469ZM14.1634 18.8598H20.7013L17.5361 10.1037H17.4323L14.1634 18.8598Z" fill="#292C2D"/>
<path d="M107.594 28.044L116.052 6.16016H119.943L128.297 28.044H124.484L122.317 22.0509H113.535L111.291 28.044H107.594ZM114.703 18.8598H121.241L118.075 10.1037H117.972L114.703 18.8598Z" fill="#292C2D"/>
<path d="M78.5359 35.0203H56.2759C46.6766 35.0203 38.9064 27.2371 38.9064 17.6508C38.9064 8.05149 46.6896 0.28125 56.2759 0.28125H78.5359C88.1352 0.28125 95.9054 8.06446 95.9054 17.6508C95.9054 27.2371 88.1222 35.0203 78.5359 35.0203Z" fill="#B6A6F6"/>
<path d="M59.2582 27.8604V5.97656H66.4706C68.6629 5.97656 70.5698 6.41761 72.1913 7.29971C73.7998 8.18181 75.0581 9.44009 75.9532 11.0875C76.8482 12.722 77.2893 14.6678 77.2893 16.9249C77.2893 19.1561 76.8482 21.1019 75.9532 22.7364C75.0581 24.3709 73.7998 25.6422 72.1783 26.5372C70.5568 27.4323 68.6499 27.8733 66.4706 27.8733H59.2582V27.8604ZM62.9033 24.6822H66.4706C68.0143 24.6822 69.3245 24.3579 70.3752 23.6963C71.4259 23.0348 72.2302 22.1397 72.775 20.9852C73.3199 19.8307 73.6052 18.4816 73.6052 16.9379C73.6052 14.6159 72.9956 12.735 71.7632 11.321C70.5438 9.89411 68.7667 9.18065 66.4706 9.18065H62.9033V24.6822Z" fill="#292C2D"/>
</svg>
