<?xml version="1.0" encoding="UTF-8" standalone="no"?>
<!-- Created with Inkscape (http://www.inkscape.org/) -->

<svg
   width="56.603336mm"
   height="9.5620699mm"
   viewBox="0 0 56.603336 9.5620699"
   version="1.1"
   id="svg464"
   inkscape:version="1.2.2 (b0a8486541, 2022-12-01)"
   sodipodi:docname="logo2-1.svg"
   xmlns:inkscape="http://www.inkscape.org/namespaces/inkscape"
   xmlns:sodipodi="http://sodipodi.sourceforge.net/DTD/sodipodi-0.dtd"
   xmlns="http://www.w3.org/2000/svg"
   xmlns:svg="http://www.w3.org/2000/svg">
  <sodipodi:namedview
     id="namedview466"
     pagecolor="#ffffff"
     bordercolor="#000000"
     borderopacity="0.25"
     inkscape:showpageshadow="2"
     inkscape:pageopacity="0.0"
     inkscape:pagecheckerboard="0"
     inkscape:deskcolor="#d1d1d1"
     inkscape:document-units="mm"
     showgrid="false"
     inkscape:zoom="0.914906"
     inkscape:cx="879.87181"
     inkscape:cy="588.58505"
     inkscape:window-width="2560"
     inkscape:window-height="1371"
     inkscape:window-x="0"
     inkscape:window-y="32"
     inkscape:window-maximized="1"
     inkscape:current-layer="layer1" />
  <defs
     id="defs461" />
  <g
     inkscape:label="Layer 1"
     inkscape:groupmode="layer"
     id="layer1"
     transform="translate(127.78366,6.8053774)">
    <path
       d="m -124.78067,-2.4087416 h -0.57309 v -3.4356251 h 2.18969 v 0.5079629 h -1.6166 v 0.9438508 h 1.5068 v 0.5079656 h -1.5068 z"
       fill="#292c2d"
       id="path46"
       style="stroke-width:0.264583" />
    <path
       d="m -121.18366,-2.3572801 c -0.2712,0 -0.508,-0.048048 -0.71041,-0.1475846 -0.2024,-0.09951 -0.36036,-0.2470944 -0.47016,-0.4393142 -0.11324,-0.1921933 -0.16828,-0.4324614 -0.16828,-0.7138987 v -2.1862891 h 0.57997 v 2.1279485 c 0,0.2574131 0.0653,0.4599252 0.19923,0.6040702 0.13388,0.144145 0.32941,0.2162175 0.59029,0.2162175 0.26432,0 0.45984,-0.075512 0.58684,-0.2299494 0.13044,-0.1544373 0.19236,-0.3466571 0.19236,-0.5868988 v -2.131388 h 0.57308 v 2.1931683 c 0,0.2677054 -0.055,0.5010943 -0.16483,0.6932877 -0.1098,0.1922197 -0.26776,0.3432174 -0.47361,0.4461933 -0.2024,0.1029758 -0.44952,0.1544373 -0.73448,0.1544373 z m -0.51832,-3.8028456 c -0.0892,0 -0.16801,-0.03089 -0.22992,-0.096102 -0.0651,-0.065212 -0.0961,-0.1407187 -0.0961,-0.226523 0,-0.089238 0.031,-0.1647457 0.0961,-0.2265249 0.0653,-0.065212 0.14076,-0.096101 0.22992,-0.096101 0.0894,0 0.16484,0.030889 0.22648,0.096101 0.0654,0.065211 0.0963,0.1407194 0.0963,0.2265249 0,0.089236 -0.031,0.1647428 -0.0963,0.226523 -0.0616,0.065212 -0.13705,0.096102 -0.22648,0.096102 z m 1.06072,0 c -0.0894,0 -0.16484,-0.03089 -0.22649,-0.096102 -0.0653,-0.065212 -0.0963,-0.1407187 -0.0963,-0.226523 0,-0.089238 0.031,-0.1647457 0.0963,-0.2265249 0.0651,-0.065212 0.1405,-0.096101 0.22649,-0.096101 0.0892,0 0.16801,0.030889 0.22992,0.096101 0.0651,0.065211 0.096,0.1407194 0.096,0.2265249 0,0.089236 -0.031,0.1647428 -0.096,0.226523 -0.0619,0.065212 -0.13732,0.096102 -0.22992,0.096102 z"
       fill="#292c2d"
       id="path48"
       style="stroke-width:0.264583" />
    <path
       d="m -118.87385,-2.4087416 v -3.4356251 h 1.524 c 0.21273,0 0.3982,0.037753 0.55933,0.1098285 0.1614,0.072075 0.2884,0.1819064 0.37756,0.3191934 0.0894,0.1407186 0.13732,0.3088957 0.13732,0.5079629 0,0.1613112 -0.0344,0.3054641 -0.10636,0.4358878 -0.072,0.1304211 -0.18521,0.2299547 -0.34317,0.2985982 v 0.017164 c 0.14764,0 0.25744,0.037756 0.33629,0.1166812 0.0754,0.078952 0.11324,0.1887803 0.11324,0.3363648 v 1.2939448 h -0.56965 v -1.3625777 h -1.45521 v 1.3625777 z m 0.57335,-1.8636879 h 0.9025 c 0.16827,0 0.30215,-0.048051 0.40508,-0.1407187 0.10292,-0.092668 0.15451,-0.226523 0.15451,-0.3947001 0,-0.1716087 -0.0516,-0.3054641 -0.15451,-0.3981344 -0.10293,-0.092668 -0.23681,-0.137287 -0.40508,-0.137287 h -0.9025 z"
       fill="#292c2d"
       id="path50"
       style="stroke-width:0.264583" />
    <path
       d="m -114.02086,-2.4087416 v -3.4356251 h 1.13268 c 0.34661,0 0.64532,0.068644 0.89932,0.2093621 0.254,0.137287 0.44953,0.3363542 0.59029,0.5937674 0.14075,0.2574157 0.20928,0.5628772 0.20928,0.9163817 0,0.3500966 -0.0685,0.6555581 -0.20928,0.9129712 -0.14076,0.2574131 -0.33629,0.4564856 -0.59373,0.597191 -0.254,0.1407319 -0.55271,0.2093648 -0.89588,0.2093648 h -1.13268 z m 0.57335,-0.5011208 h 0.55933 c 0.24368,0 0.44609,-0.051461 0.61436,-0.1544373 0.16484,-0.1029758 0.29184,-0.2471208 0.37756,-0.4255823 0.0857,-0.181901 0.13044,-0.3947054 0.13044,-0.6383867 0,-0.3638179 -0.096,-0.6589871 -0.28839,-0.8820784 -0.19209,-0.2230914 -0.47017,-0.3363542 -0.83053,-0.3363542 h -0.56277 z"
       fill="#292c2d"
       id="path52"
       style="stroke-width:0.264583" />
    <path
       d="m -110.41697,-2.4087416 v -3.4356251 h 0.57335 v 3.4390382 h -0.57335 z"
       fill="#292c2d"
       id="path54"
       style="stroke-width:0.264583" />
    <path
       d="m -106.63131,-2.4087416 h -2.23441 v -3.4356251 h 2.23441 v 0.5079629 h -1.66106 v 0.8957972 h 1.5547 v 0.5010917 h -1.5547 v 1.0227998 h 1.66106 z"
       fill="#292c2d"
       id="path56"
       style="stroke-width:0.264583" />
    <path
       d="m -103.09251,-2.3572801 c -0.30533,0 -0.57653,-0.072072 -0.81677,-0.2196571 -0.24024,-0.144145 -0.42915,-0.3500702 -0.56621,-0.6143625 -0.13732,-0.2642658 -0.20955,-0.5766065 -0.20955,-0.936969 0,-0.3638179 0.0688,-0.6761479 0.20955,-0.9404244 0.13706,-0.264279 0.32597,-0.4702095 0.56621,-0.6143624 0.24024,-0.1441503 0.51144,-0.2162255 0.81677,-0.2162255 0.30903,0 0.58367,0.072075 0.82047,0.2127938 0.24024,0.1441529 0.42545,0.3466518 0.56621,0.6109282 0.13732,0.2642791 0.20585,0.5800381 0.20585,0.9438508 0,0.3603889 -0.0685,0.6727031 -0.20929,0.9369954 -0.13732,0.2677054 -0.32597,0.470191 -0.56621,0.6143625 -0.23336,0.1509977 -0.508,0.2230702 -0.81703,0.2230702 z m 0,-0.5113867 c 0.20611,0 0.38444,-0.051488 0.53552,-0.1578769 0.15107,-0.1029758 0.26775,-0.2505604 0.35348,-0.4393141 0.0823,-0.1887802 0.12356,-0.4084373 0.12356,-0.6589977 0,-0.2539709 -0.0413,-0.4770623 -0.12356,-0.6658319 -0.0823,-0.1887696 -0.20241,-0.3329226 -0.35348,-0.4358878 -0.15108,-0.1029653 -0.32941,-0.1544479 -0.53552,-0.1544479 -0.20241,0 -0.381,0.051483 -0.53181,0.1544479 -0.15108,0.1029652 -0.2712,0.2505498 -0.35375,0.4358878 -0.0857,0.1887696 -0.12674,0.4084293 -0.12674,0.6658319 0,0.2505604 0.041,0.4736571 0.12674,0.6589977 0.086,0.1887537 0.20267,0.3363383 0.35375,0.4393141 0.15081,0.1029494 0.3294,0.1578769 0.53181,0.1578769 z m -0.52837,-3.2914616 c -0.0894,0 -0.16828,-0.03089 -0.23019,-0.096099 -0.0651,-0.065212 -0.096,-0.1407213 -0.096,-0.2265257 0,-0.089236 0.0309,-0.1647441 0.096,-0.2265233 0.0654,-0.065211 0.14076,-0.096101 0.23019,-0.096101 0.0892,0 0.16457,0.03089 0.22648,0.096101 0.0651,0.065211 0.096,0.1407195 0.096,0.2265233 0,0.089239 -0.031,0.1647455 -0.096,0.2265257 -0.0653,0.065209 -0.14076,0.096099 -0.22648,0.096099 z m 1.06045,0 c -0.0892,0 -0.16484,-0.03089 -0.22649,-0.096099 -0.0654,-0.065212 -0.096,-0.1407213 -0.096,-0.2265257 0,-0.089236 0.0307,-0.1647441 0.096,-0.2265233 0.0651,-0.065211 0.14076,-0.096101 0.22649,-0.096101 0.0892,0 0.16827,0.03089 0.22992,0.096101 0.0654,0.065211 0.096,0.1407195 0.096,0.2265233 0,0.089239 -0.0307,0.1647455 -0.096,0.2265257 -0.0617,0.065209 -0.14076,0.096099 -0.22992,0.096099 z"
       fill="#292c2d"
       id="path58"
       style="stroke-width:0.264583" />
    <path
       d="m -100.13076,-2.4087416 h -0.57309 v -3.4356251 h 2.18969 v 0.5079629 h -1.6166 v 0.9438508 h 1.506797 v 0.5079656 h -1.506797 z"
       fill="#292c2d"
       id="path60"
       style="stroke-width:0.264583" />
    <path
       d="m -97.275381,-2.4087416 h -0.573088 v -3.4356251 h 2.189692 v 0.5079629 h -1.616604 v 0.9438482 h 1.506802 v 0.5079682 h -1.506802 z"
       fill="#292c2d"
       id="path62"
       style="stroke-width:0.264583" />
    <path
       d="m -92.758415,-2.4087416 h -2.234406 v -3.4356251 h 2.234406 v 0.5079629 h -1.661318 v 0.8957972 h 1.554956 v 0.5010917 h -1.554956 v 1.0227998 h 1.661318 z"
       fill="#292c2d"
       id="path64"
       style="stroke-width:0.264583" />
    <path
       d="m -89.082294,-2.4087416 h -0.624681 l -1.705769,-2.5501229 h -0.0172 v 2.5501229 h -0.535516 v -3.4356251 h 0.604308 l 1.726142,2.5809945 h 0.0172 v -2.5809945 h 0.535517 z"
       fill="#292c2d"
       id="path66"
       style="stroke-width:0.264583" />
    <path
       d="m -86.793384,-2.4087416 h -0.569647 v -2.9276622 h -1.077648 v -0.5079629 h 2.725208 v 0.5079629 h -1.077913 z"
       fill="#292c2d"
       id="path68"
       style="stroke-width:0.264583" />
    <path
       d="m -85.073856,-2.4087416 v -3.4356251 h 0.573352 v 2.9276516 h 1.636977 v 0.5079735 z"
       fill="#292c2d"
       id="path70"
       style="stroke-width:0.264583" />
    <path
       d="m -82.194131,-2.4087416 v -3.4356251 h 0.573352 v 3.4390382 h -0.573352 z"
       fill="#292c2d"
       id="path72"
       style="stroke-width:0.264583" />
    <path
       d="m -79.235561,-2.3469614 c -0.315648,0 -0.590285,-0.075512 -0.830527,-0.2230966 -0.240241,-0.1475846 -0.425714,-0.3569494 -0.559594,-0.6246548 -0.133879,-0.2677319 -0.198966,-0.5766065 -0.198966,-0.9267031 0,-0.3535098 0.06509,-0.6624056 0.198966,-0.9301163 0.13388,-0.2677107 0.319353,-0.4736412 0.559594,-0.6212231 0.240242,-0.1475846 0.514879,-0.223094 0.830527,-0.223094 0.250561,0 0.473604,0.048051 0.669396,0.1407213 0.198967,0.096099 0.360363,0.2299546 0.487363,0.4015634 0.127,0.1716087 0.209285,0.3775419 0.243681,0.6109282 h -0.597429 c -0.02725,-0.1922013 -0.116682,-0.3466492 -0.260615,-0.4633437 -0.144198,-0.1166944 -0.326231,-0.1750403 -0.542396,-0.1750403 -0.202406,0 -0.381,0.051483 -0.535516,0.1578795 -0.154252,0.1063969 -0.270934,0.2505498 -0.353484,0.4358878 -0.08228,0.185338 -0.12356,0.4084293 -0.12356,0.6623976 0,0.2505604 0.04127,0.4736571 0.12356,0.6589977 0.08255,0.1887537 0.199232,0.3363383 0.353484,0.4393141 0.154516,0.106389 0.32967,0.1578769 0.535516,0.1578769 0.216165,0 0.394759,-0.058341 0.542396,-0.1750483 0.143933,-0.1166813 0.233363,-0.271145 0.260615,-0.4598988 h 0.597429 c -0.0344,0.233389 -0.113242,0.4358746 -0.243681,0.6074834 -0.13044,0.1716087 -0.291836,0.308901 -0.487363,0.4049977 -0.195792,0.096097 -0.418835,0.1441714 -0.669396,0.1441714 z"
       fill="#292c2d"
       id="path74"
       style="stroke-width:0.264583" />
    <path
       d="m -77.16255,-2.4087416 v -3.4356251 h 0.573087 v 1.4003284 h 1.630363 v -1.4003284 h 0.573087 v 3.4390382 H -74.9591 v -1.5307468 h -1.630363 v 1.5273337 z"
       fill="#292c2d"
       id="path76"
       style="stroke-width:0.264583" />
    <path
       d="m -71.180321,-2.4087416 h -2.234142 v -3.4356251 h 2.234142 v 0.5079629 h -1.661054 v 0.8957998 h 1.554691 v 0.5010891 h -1.554691 v 1.0227998 h 1.661054 z"
       fill="#292c2d"
       id="path78"
       style="stroke-width:0.264583" />
    <path
       d="m -124.26235,2.7052044 -1.27318,-3.43561455 h 0.63818 l 0.98848,2.79378825 h 0.0172 l 0.9816,-2.79378825 h 0.61437 l -1.27318,3.43902765 h -0.69347 z"
       fill="#292c2d"
       id="path80"
       style="stroke-width:0.264583" />
    <path
       d="m -119.47472,2.7052044 h -2.2344 v -3.43561455 h 2.2344 v 0.50794708 h -1.66105 v 0.89579978 h 1.55469 V 1.1744575 h -1.55469 v 1.0227734 h 1.66105 z"
       fill="#292c2d"
       id="path82"
       style="stroke-width:0.264583" />
    <path
       d="m -118.67832,2.7052044 v -3.43561455 h 1.524 c 0.21272,0 0.3982,0.037756 0.55933,0.10982854 0.16139,0.0720725 0.28839,0.18190104 0.37756,0.31919333 0.0894,0.14070541 0.13732,0.30890104 0.13732,0.50794707 0,0.16131646 -0.0341,0.30546146 -0.10636,0.43590104 -0.072,0.13041312 -0.18521,0.22994937 -0.34317,0.29860875 v 0.017145 c 0.14764,0 0.25744,0.037756 0.33629,0.11670772 0.0757,0.078925 0.11324,0.1887537 0.11324,0.3363383 v 1.2939448 h -0.56965 V 1.3426267 h -1.45521 v 1.3625777 z m 0.57335,-1.86367207 h 0.9025 c 0.16827,0 0.30215,-0.0480483 0.40507,-0.14073187 0.10293,-0.0926571 0.15452,-0.22650979 0.15452,-0.39470542 0,-0.17160874 -0.0516,-0.30546145074 -0.15452,-0.39811853 -0.10292,-0.09268354 -0.2368,-0.13729229 -0.40507,-0.13729229 h -0.9025 z"
       fill="#292c2d"
       id="path84"
       style="stroke-width:0.264583" />
    <path
       d="m -114.69687,2.7052044 -0.87868,-3.43561455 h 0.60404 l 0.58685,2.56383895 h 0.0172 l 0.67971,-2.56383895 h 0.55245 l 0.71729,2.56383895 h 0.0172 l 0.58023,-2.56383895 h 0.60405 l -0.87868,3.43902765 h -0.59029 l -0.72099,-2.61530037 h -0.0169 l -0.68316,2.61530037 h -0.59028 z"
       fill="#292c2d"
       id="path86"
       style="stroke-width:0.264583" />
    <path
       d="m -111.31973,2.7052044 1.32821,-3.43905413 h 0.61092 l 1.31128,3.43905413 h -0.59717 l -0.33999,-0.9438481 h -1.37953 l -0.35375,0.9438481 z m 1.11892,-1.4415294 h 1.02632 l -0.49768,-1.37630953 h -0.0172 z"
       fill="#292c2d"
       id="path88"
       style="stroke-width:0.264583" />
    <path
       d="m -107.50311,2.7052044 v -3.43561455 h 0.57308 V 2.1972309 h 1.63724 v 0.5079735 z"
       fill="#292c2d"
       id="path90"
       style="stroke-width:0.264583" />
    <path
       d="m -103.94738,2.7052044 h -0.56965 v -2.92766747 h -1.07764 v -0.50794708 h 2.72494 v 0.50794708 h -1.07765 z"
       fill="#292c2d"
       id="path92"
       style="stroke-width:0.264583" />
    <path
       d="m -100.91658,2.7566923 c -0.2712,0 -0.508,-0.048075 -0.71067,-0.1475846 -0.2024,-0.099536 -0.36036,-0.2471208 -0.47016,-0.4393406 -0.11324,-0.1921933 -0.16801,-0.432435 -0.16801,-0.7138723 v -2.18630495 h 0.57996 V 1.3975277 c 0,0.2574132 0.0651,0.4599252 0.19897,0.6040702 0.13388,0.144145 0.32967,0.2162175 0.59029,0.2162175 0.26431,0 0.46011,-0.075486 0.58711,-0.2299493 0.13044,-0.1544373 0.19208,-0.3466571 0.19208,-0.5868988 v -2.13137745 h 0.573091 V 1.4627475 c 0,0.2677054 -0.05477,0.5010944 -0.164571,0.6932877 -0.109802,0.1922198 -0.267758,0.343244 -0.4736,0.4461934 -0.20267,0.1029758 -0.4498,0.1544637 -0.73449,0.1544637 z"
       fill="#292c2d"
       id="path94"
       style="stroke-width:0.264583" />
    <path
       d="m -95.72704,2.7052044 h -0.624681 L -98.05749,0.15509734 h -0.0172 V 2.7052044 h -0.535516 v -3.43561455 h 0.604044 l 1.726406,2.58098395 h 0.0172 v -2.58098395 h 0.535516 z"
       fill="#292c2d"
       id="path96"
       style="stroke-width:0.264583" />
    <path
       d="m -93.400029,2.7566923 c -0.298715,0 -0.559594,-0.075512 -0.792957,-0.2265362 -0.229922,-0.1510242 -0.411956,-0.360389 -0.542395,-0.6246548 -0.13044,-0.2642923 -0.198967,-0.5731669 -0.198967,-0.91982397 0,-0.35009667 0.06853,-0.65897124 0.205846,-0.92670312 0.137319,-0.26770541 0.326231,-0.47363062 0.569912,-0.6212152 0.243682,-0.14758458 0.521494,-0.22309666 0.833967,-0.22309666 0.25056,0 0.477044,0.0480483 0.67601,0.14073187 0.199232,0.0960967 0.360363,0.22994937 0.487363,0.40155812 0.127,0.17160875 0.20955,0.37753396 0.243681,0.61092291 h -0.597164 c -0.02725,-0.19219333 -0.113242,-0.34665708 -0.25744,-0.46333833 -0.143933,-0.11668124 -0.325967,-0.17504833 -0.54901,-0.17504833 -0.205846,0 -0.38788,0.0514879 -0.542396,0.15787688 -0.154252,0.10641541 -0.274373,0.25056041 -0.360363,0.43934062 -0.08573,0.18875374 -0.130439,0.40841082 -0.130439,0.65897124 0,0.25053397 0.04471,0.47363057 0.130439,0.66585037 0.08943,0.1921934 0.20955,0.3397779 0.363802,0.4496065 0.154517,0.1098285 0.333111,0.164756 0.535517,0.164756 0.161396,0 0.305329,-0.030903 0.432329,-0.092683 0.127,-0.06178 0.226748,-0.144145 0.302154,-0.250534 0.07197,-0.1064154 0.109802,-0.2230966 0.109802,-0.3535362 V 1.390675 h -0.902758 V 0.92389712 h 1.009121 c 0.151077,0 0.264319,0.037756 0.339725,0.11668128 0.07567,0.078952 0.113242,0.1887802 0.113242,0.3363648 v 1.3248216 h -0.531813 v -0.453046 h -0.0172 c -0.07197,0.1544373 -0.188912,0.2745845 -0.350044,0.3672416 -0.157956,0.096097 -0.353483,0.1407319 -0.579966,0.1407319 z"
       fill="#292c2d"
       id="path98"
       style="stroke-width:0.264583" />
    <path
       d="M -127.64637,-5.8375034 V 2.6880329"
       stroke="#292c2d"
       stroke-width="0.274574"
       stroke-miterlimit="10"
       id="path100" />
  </g>
</svg>
