<?xml version="1.0" encoding="UTF-8" standalone="no"?>
<svg
   width="151.27901"
   height="32.715389"
   viewBox="0 0 151.27901 32.715389"
   fill="none"
   version="1.1"
   id="svg102"
   sodipodi:docname="logo1.svg"
   inkscape:version="1.2.2 (b0a8486541, 2022-12-01)"
   xmlns:inkscape="http://www.inkscape.org/namespaces/inkscape"
   xmlns:sodipodi="http://sodipodi.sourceforge.net/DTD/sodipodi-0.dtd"
   xmlns="http://www.w3.org/2000/svg"
   xmlns:svg="http://www.w3.org/2000/svg">
  <defs
     id="defs106" />
  <sodipodi:namedview
     id="namedview104"
     pagecolor="#ffffff"
     bordercolor="#000000"
     borderopacity="0.25"
     inkscape:showpageshadow="2"
     inkscape:pageopacity="0.0"
     inkscape:pagecheckerboard="0"
     inkscape:deskcolor="#d1d1d1"
     showgrid="false"
     inkscape:zoom="3.579235"
     inkscape:cx="166.51603"
     inkscape:cy="15.506107"
     inkscape:window-width="2560"
     inkscape:window-height="1371"
     inkscape:window-x="0"
     inkscape:window-y="32"
     inkscape:window-maximized="1"
     inkscape:current-layer="svg102" />
  <path
     d="M 0,13.19249 5.020165,0.20754 h 2.30903 l 4.95531,12.99795 h -2.2571 l -1.28426,-3.5673 h -5.21476 l -1.33611,3.5673 H 0 Z m 4.215905,-5.4482 h 3.87864 L 6.213605,2.54251 h -0.06486 z"
     fill="#292c2d"
     id="path2" />
  <path
     d="m 25.307605,13.19249 h -2.3609 l -6.4471,-9.63817 h -0.0648 v 9.63817 h -2.0237 V 0.20754 h 2.2831 l 6.5249,9.75495 h 0.0649 V 0.20754 h 2.0236 z"
     fill="#292c2d"
     id="path4" />
  <path
     d="m 34.103205,13.38709 c -1.1286,0 -2.1145,-0.2853 -2.9966,-0.8561 -0.8691,-0.5708 -1.5566,-1.3621 -2.0495,-2.3609 -0.493,-0.9989 -0.7524,-2.1664 -0.7524,-3.4765 0,-1.32317 0.2594,-2.49065 0.7783,-3.50247 0.5189,-1.01182 1.2323,-1.79014 2.1534,-2.34794 0.921,-0.5578 1.9717,-0.84318 3.1522,-0.84318 0.9469,0 1.8031,0.18161 2.5554,0.53185 0.7524,0.36322 1.3621,0.86913 1.8421,1.51773 0.4799,0.6486 0.7913,1.42692 0.921,2.30902 h -2.2701 c -0.1038,-0.72643 -0.4281,-1.31017 -0.9729,-1.75122 -0.5448,-0.44105 -1.2324,-0.66158 -2.0755,-0.66158 -0.7784,0 -1.4659,0.19458 -2.0496,0.59672 -0.5838,0.40213 -1.0378,0.94695 -1.3621,1.66042 -0.3243,0.71346 -0.4929,1.54367 -0.4929,2.49065 0,0.9469 0.1686,1.7901 0.4929,2.5165 0.3373,0.7265 0.7913,1.2843 1.3751,1.6994 0.5837,0.4151 1.2582,0.6226 2.0236,0.6226 0.6097,0 1.1545,-0.1167 1.6345,-0.3502 0.4799,-0.2335 0.8561,-0.5448 1.1415,-0.947 0.2724,-0.4021 0.4151,-0.8431 0.4151,-1.3361 v -0.6745 h -3.4116 V 6.47304 h 3.8137 c 0.5708,0 0.9989,0.14265 1.2843,0.44105 0.2854,0.2984 0.4281,0.7135 0.4281,1.2713 v 5.0072 h -1.9848 v -1.7123 h -0.0648 c -0.2724,0.5837 -0.7135,1.0377 -1.3232,1.388 -0.6097,0.3502 -1.3491,0.5188 -2.2052,0.5188 z"
     fill="#292c2d"
     id="path6" />
  <path
     d="m 51.446705,13.19259 h -8.4448 V 0.20755 h 8.4448 v 1.91986 h -6.2785 V 5.5131 h 5.8763 v 1.89389 h -5.8763 v 3.8657 h 6.2785 z"
     fill="#292c2d"
     id="path8" />
  <path
     d="m 56.700805,13.19259 -3.3338,-12.98504 h 2.283 l 2.2183,9.69014 h 0.0648 l 2.5815,-9.69014 h 2.0884 l 2.7112,9.69014 h 0.0649 l 2.1922,-9.69014 h 2.2831 l -3.3208,12.99794 h -2.2312 l -2.7241,-9.88466 h -0.0649 l -2.5814,9.88466 h -2.2312 z"
     fill="#292c2d"
     id="path10" />
  <path
     d="m 69.464705,13.19259 5.0202,-12.98504 h 2.309 l 4.9553,12.99794 h -2.2571 l -1.2842,-3.5673 h -5.2148 l -1.3361,3.5673 h -2.1923 z m 4.2159,-5.4483 h 3.8787 l -1.868,-5.20178 h -0.0649 z"
     fill="#292c2d"
     id="path12" />
  <path
     d="m 94.786205,13.19259 h -2.3609 l -6.4471,-9.63826 h -0.0649 v 9.63826 h -2.0236 V 0.20755 h 2.283 l 6.525,9.75494 h 0.0648 V 0.20755 h 2.0237 z"
     fill="#292c2d"
     id="path14" />
  <path
     d="M 98.469705,13.19249 V 0.20754 h 4.281105 c 1.31,0 2.438,0.25944 3.39799,0.7913 0.96,0.51888 1.70001,1.27125 2.232,2.24416 0.53101,0.9729 0.791,2.12741 0.791,3.46349 0,1.3232 -0.26,2.4777 -0.791,3.4506 -0.53199,0.9729 -1.272,1.7253 -2.245,2.2571 -0.96,0.5319 -2.088,0.7913 -3.385,0.7913 h -4.281095 z m 2.166105,-1.8939 h 2.115 c 0.921,0 1.686,-0.1945 2.322,-0.5837 0.622,-0.3892 1.102,-0.934 1.427,-1.6085 0.324,-0.6876 0.493,-1.4918 0.493,-2.4128 0,-1.37507 -0.364,-2.49066 -1.09,-3.33385 -0.72701,-0.84318 -1.777,-1.27125 -3.139,-1.27125 h -2.115 v 9.2101 z"
     fill="#292c2d"
     id="path16" />
  <path
     d="M 116.07281,13.19259 H 113.9198 V 2.12741 h -4.07299 V 0.20755 h 10.299 v 1.91986 h -4.073 z"
     fill="#292c2d"
     id="path18" />
  <path
     d="m 131.0168,13.19249 h -8.44499 V 0.20754 h 8.44499 V 2.1274 h -6.27799 v 3.3857 h 5.87599 v 1.89389 h -5.87599 v 3.8657 h 6.27799 z"
     fill="#292c2d"
     id="path20" />
  <path
     d="m 1.543745,32.52089 v -12.985 h 4.28077 c 1.31017,0 2.43873,0.2594 3.39869,0.7913 0.9599,0.5188 1.6993,1.2712 2.2312,2.2441 0.5318,0.9729 0.7913,2.1274 0.7913,3.4636 0,1.3231 -0.2595,2.4776 -0.7913,3.4505 -0.5319,0.9729 -1.2713,1.7253 -2.2442,2.2571 -0.95992,0.5319 -2.08849,0.7913 -3.38569,0.7913 h -4.28077 z m 2.16632,-1.8939 h 2.11445 c 0.92101,0 1.68635,-0.1946 2.32198,-0.5838 0.62266,-0.3891 1.10261,-0.934 1.42691,-1.6085 0.3243,-0.6875 0.493,-1.4918 0.493,-2.4128 0,-1.3751 -0.3633,-2.4906 -1.0897,-3.3338 -0.72643,-0.8432 -1.77716,-1.2713 -3.13922,-1.2713 h -2.12742 z"
     fill="#292c2d"
     id="path22" />
  <path
     d="m 13.114305,32.52089 5.0201,-12.998 h 2.309 l 4.9554,12.998 h -2.2572 l -1.2842,-3.5673 h -5.2148 l -1.3361,3.5673 z m 4.2288,-5.4483 h 3.8787 l -1.881,-5.2018 h -0.0648 z"
     fill="#292c2d"
     id="path24" />
  <path
     d="m 30.574205,32.52089 h -2.1533 v -11.0652 h -4.0732 v -1.9198 h 10.2997 v 1.9198 h -4.0732 z"
     fill="#292c2d"
     id="path26" />
  <path
     d="m 45.505305,32.52089 h -8.4448 v -12.985 h 8.4448 v 1.9198 h -6.2784 v 3.3857 h 5.8763 v 1.8939 h -5.8763 v 3.8657 h 6.2784 z"
     fill="#292c2d"
     id="path28" />
  <path
     d="m 59.411305,32.52089 h -2.3609 l -6.4471,-9.6382 h -0.0649 v 9.6382 h -2.0236 v -12.985 h 2.2831 l 6.5249,9.7549 h 0.0649 v -9.7549 h 2.0236 z"
     fill="#292c2d"
     id="path30" />
  <path
     d="m 61.539105,32.52089 5.0201,-12.998 h 2.3091 l 4.9553,12.998 h -2.2572 l -1.2842,-3.5673 h -5.2148 l -1.3361,3.5673 z m 4.2159,-5.4483 h 3.8786 l -1.881,-5.2018 h -0.0648 z"
     fill="#292c2d"
     id="path32" />
  <path
     d="m 86.860205,32.52089 h -2.3609 l -6.4471,-9.6382 h -0.0649 v 9.6382 h -2.0236 v -12.985 h 2.2831 l 6.5249,9.7549 h 0.0648 v -9.7549 h 2.0237 z"
     fill="#292c2d"
     id="path34" />
  <path
     d="m 88.987305,32.52089 5.0202,-12.998 h 2.309 l 4.955305,12.998 h -2.257105 l -1.2843,-3.5673 h -5.2147 l -1.3361,3.5673 z m 4.2289,-5.4483 h 3.8786 l -1.8809,-5.2018 h -0.0649 z"
     fill="#292c2d"
     id="path36" />
  <path
     d="m 103.41181,32.52089 v -12.985 h 2.167 v 11.0651 h 6.187 v 1.9199 z"
     fill="#292c2d"
     id="path38" />
  <path
     d="m 114.86781,32.52089 v -4.8645 l -4.45,-8.1335 h 2.452 l 3.09999,5.8893 h 0.065 l 3.1,-5.8893 h 2.348 l -4.449,8.1075 v 4.8905 z"
     fill="#292c2d"
     id="path40" />
  <path
     d="m 127.3328,32.71539 c -1.024,0 -1.919,-0.1686 -2.69799,-0.5188 -0.765,-0.3503 -1.375,-0.8432 -1.81601,-1.4788 -0.441,-0.6357 -0.68699,-1.3751 -0.75199,-2.2183 h 2.23099 c 0.104,0.7654 0.428,1.3621 0.973,1.7642 0.545,0.4022 1.258,0.6097 2.14,0.6097 0.817,0 1.44,-0.1686 1.881,-0.5059 0.441,-0.3373 0.662,-0.8043 0.662,-1.4139 0,-0.467 -0.156,-0.8692 -0.454,-1.1805 -0.312,-0.3113 -0.792,-0.5448 -1.453,-0.7005 l -2.102,-0.467 c -1.128,-0.2594 -1.971,-0.6745 -2.542,-1.2712 -0.571,-0.5838 -0.856,-1.3362 -0.856,-2.2442 0,-0.7524 0.181,-1.401 0.55801,-1.9717 0.376,-0.5578 0.89499,-0.9989 1.58199,-1.3102 0.675,-0.3113 1.479,-0.467 2.4,-0.467 0.947,0 1.764,0.1686 2.465,0.4929 0.7,0.3243 1.258,0.7913 1.686,1.388 0.428,0.5967 0.675,1.2972 0.752,2.1015 h -2.244 c -0.13,-0.7005 -0.428,-1.2453 -0.921,-1.6215 -0.48,-0.3762 -1.10199,-0.5578 -1.84199,-0.5578 -0.7,0 -1.271,0.1557 -1.686,0.467 -0.415,0.3113 -0.623,0.7524 -0.623,1.2972 0,0.4151 0.143,0.7783 0.441,1.0767 0.299,0.2983 0.753,0.5189 1.388,0.6615 l 2.218,0.493 c 1.12899,0.2594 1.972,0.6875 2.53,1.2842 0.55799,0.5967 0.84299,1.388 0.84299,2.3739 0,1.1934 -0.415,2.1534 -1.245,2.8668 -0.843,0.7005 -2.011,1.0507 -3.516,1.0507 z"
     fill="#292c2d"
     id="path42" />
  <path
     d="m 143.4308,32.52089 h -8.444 v -12.985 h 8.444 v 1.9198 h -6.278 v 3.3857 h 5.876 v 1.8939 h -5.876 v 3.8657 h 6.278 z"
     fill="#292c2d"
     id="path44" />
</svg>
