<svg width="54" height="48" viewBox="0 0 54 48" fill="none" xmlns="http://www.w3.org/2000/svg">
<path d="M11.934 47.845V42.9535L14.4012 40.5081H5.55024C4.14109 40.5081 2.94836 40.0243 1.97204 39.0567C0.995726 38.089 0.507568 36.9069 0.507568 35.5102V5.84287C0.507568 4.44623 0.995726 3.26409 1.97204 2.29644C2.94836 1.32879 4.14109 0.844971 5.55024 0.844971H48.4649C49.8741 0.844971 51.0668 1.32879 52.0431 2.29644C53.0194 3.26409 53.5076 4.44623 53.5076 5.84287V35.5102C53.5076 36.9069 53.0194 38.089 52.0431 39.0567C51.0668 40.0243 49.8741 40.5081 48.4649 40.5081H39.6139L42.0812 42.9535V47.845H11.934ZM5.55024 36.3611H48.4649C48.6797 36.3611 48.8764 36.2724 49.0549 36.095C49.2339 35.9176 49.3234 35.7227 49.3234 35.5102V5.84287C49.3234 5.62999 49.2339 5.43507 49.0549 5.25813C48.8764 5.08073 48.6797 4.99203 48.4649 4.99203H5.55024C5.33545 4.99203 5.13879 5.08073 4.96027 5.25813C4.78128 5.43507 4.69178 5.62999 4.69178 5.84287V35.5102C4.69178 35.7227 4.78128 35.9176 4.96027 36.095C5.13879 36.2724 5.33545 36.3611 5.55024 36.3611Z" fill="#292C2D"/>
</svg>
