<svg width="523" height="527" xmlns="http://www.w3.org/2000/svg" xmlns:xlink="http://www.w3.org/1999/xlink" xml:space="preserve" overflow="hidden"><g transform="translate(-577 -1151)"><path d="M887.834 1507.63C913.439 1494.67 944.708 1504.91 957.674 1530.52L993.973 1602.2C1006.94 1627.81 996.693 1659.08 971.088 1672.04L971.088 1672.04C945.482 1685.01 914.213 1674.76 901.247 1649.16L864.948 1577.47C851.982 1551.87 862.228 1520.6 887.834 1507.63Z" fill="#232528" fill-rule="evenodd"/><path d="M710.144 1156.73C735.75 1143.77 767.018 1154.01 779.985 1179.62L779.985 1179.62C792.951 1205.23 782.705 1236.49 757.099 1249.46L757.099 1249.46C731.494 1262.43 700.225 1252.18 687.259 1226.58L687.259 1226.58C674.292 1200.97 684.539 1169.7 710.144 1156.73Z" fill="#232528" fill-rule="evenodd"/><path d="M784.172 1262.73C800.832 1254.3 821.177 1260.97 829.613 1277.63L850.216 1318.31C858.652 1334.97 851.986 1355.32 835.326 1363.75L802.931 1380.16C786.271 1388.59 765.926 1381.93 757.49 1365.27L736.887 1324.58C728.451 1307.92 735.117 1287.58 751.777 1279.14Z" fill="#232528" fill-rule="evenodd"/><path d="M583.275 1576.62C570.309 1551.02 580.555 1519.75 606.161 1506.78L1023.86 1295.26C1049.47 1282.3 1080.74 1292.54 1093.71 1318.15L1093.71 1318.15C1106.67 1343.75 1096.43 1375.02 1070.82 1387.99L653.116 1599.51C627.51 1612.47 596.242 1602.23 583.275 1576.62Z" fill="#232528" fill-rule="evenodd"/><path d="M684.938 1525.14C671.971 1499.54 682.218 1468.27 707.823 1455.3L707.823 1455.3C733.429 1442.33 764.698 1452.58 777.664 1478.19L777.664 1478.19C790.63 1503.79 780.384 1535.06 754.778 1548.03L754.778 1548.03C729.173 1560.99 697.904 1550.75 684.938 1525.14Z" fill="#232528" fill-rule="evenodd"/></g></svg>