<svg width="1984" height="348" xmlns="http://www.w3.org/2000/svg" xmlns:xlink="http://www.w3.org/1999/xlink" xml:space="preserve" overflow="hidden"><g transform="translate(-178 -1047)"><path d="M291.814 1195.65C301.174 1190.91 312.603 1194.66 317.343 1204.02L330.611 1230.22C335.351 1239.58 331.605 1251.01 322.246 1255.75L322.246 1255.75C312.886 1260.49 301.457 1256.74 296.717 1247.38L283.449 1221.18C278.71 1211.82 282.455 1200.39 291.815 1195.65Z" fill="#2D1B4E" fill-rule="evenodd"/><path d="M226.864 1067.39C236.224 1062.65 247.653 1066.4 252.393 1075.76L252.393 1075.76C257.132 1085.11 253.387 1096.54 244.028 1101.28L244.028 1101.28C234.668 1106.02 223.239 1102.28 218.499 1092.92L218.499 1092.92C213.76 1083.56 217.505 1072.13 226.864 1067.39Z" fill="#2D1B4E" fill-rule="evenodd"/><path d="M253.923 1106.14C260.013 1103.05 267.449 1105.49 270.533 1111.58L278.064 1126.45C281.148 1132.54 278.711 1139.98 272.621 1143.06L260.78 1149.06C254.69 1152.14 247.254 1149.7 244.17 1143.61L236.639 1128.74C233.556 1122.65 235.993 1115.22 242.082 1112.13Z" fill="#2D1B4E" fill-rule="evenodd"/><path d="M180.491 1220.87C175.751 1211.51 179.496 1200.08 188.856 1195.34L341.537 1118.03C350.897 1113.29 362.326 1117.03 367.066 1126.39L367.066 1126.39C371.805 1135.75 368.06 1147.18 358.7 1151.92L206.019 1229.23C196.66 1233.97 185.23 1230.23 180.49 1220.87Z" fill="#2D1B4E" fill-rule="evenodd"/><path d="M217.651 1202.05C212.911 1192.69 216.657 1181.26 226.016 1176.52L318.302 1129.79C327.662 1125.05 339.091 1128.8 343.831 1138.16L343.831 1138.16C348.57 1147.52 344.825 1158.95 335.466 1163.69L243.18 1210.42C233.82 1215.16 222.391 1211.41 217.651 1202.05Z" fill="#2D1B4E" fill-rule="evenodd"/><text fill="#2D1B4E" font-family="Funnel Sans,Funnel Sans_MSFontService,sans-serif" font-weight="400" font-size="165" transform="matrix(1 0 0 1 348.964 1255)">ondatix </text><text fill="#2D1B4E" font-family="Funnel Sans,Funnel Sans_MSFontService,sans-serif" font-weight="400" font-size="128" transform="matrix(1 0 0 1 938.495 1255)">DATENWERKSTATT</text></g></svg>