<svg width="958" height="348" xmlns="http://www.w3.org/2000/svg" xmlns:xlink="http://www.w3.org/1999/xlink" xml:space="preserve" overflow="hidden"><g transform="translate(-199 -853)"><path d="M410.733 1001.45C420.093 996.715 431.522 1000.46 436.262 1009.82L449.53 1036.02C454.269 1045.38 450.524 1056.81 441.165 1061.55L441.165 1061.55C431.805 1066.29 420.376 1062.54 415.636 1053.18L402.368 1026.98C397.629 1017.62 401.374 1006.19 410.733 1001.45Z" fill="#5BC4A0" fill-rule="evenodd"/><path d="M345.783 873.192C355.143 868.452 366.572 872.198 371.312 881.557L371.312 881.557C376.051 890.917 372.306 902.346 362.946 907.086L362.946 907.086C353.587 911.825 342.157 908.08 337.418 898.72L337.418 898.72C332.678 889.361 336.424 877.931 345.783 873.192Z" fill="#FFFFFF" fill-rule="evenodd"/><path d="M372.842 911.938C378.932 908.854 386.368 911.291 389.452 917.381L396.983 932.252C400.066 938.342 397.63 945.779 391.54 948.862L379.699 954.858C373.609 957.942 366.173 955.505 363.089 949.416L355.558 934.544C352.474 928.454 354.911 921.018 361.001 917.934Z" fill="#FFC947" fill-rule="evenodd"/><path d="M299.409 1026.67C294.67 1017.31 298.415 1005.88 307.775 1001.14L460.456 923.827C469.815 919.088 481.245 922.833 485.985 932.193L485.984 932.193C490.724 941.552 486.979 952.982 477.619 957.721L324.938 1035.04C315.578 1039.78 304.149 1036.03 299.409 1026.67Z" fill="#B6A6F6" fill-rule="evenodd"/><path d="M336.57 1007.85C331.83 998.495 335.575 987.065 344.935 982.326L437.221 935.593C446.58 930.854 458.01 934.599 462.75 943.959L462.75 943.959C467.489 953.318 463.744 964.748 454.384 969.487L362.098 1016.22C352.739 1020.96 341.309 1017.21 336.57 1007.85Z" fill="#B6A6F6" fill-rule="evenodd"/><text fill="#FFFFFF" font-family="Funnel Sans,Funnel Sans_MSFontService,sans-serif" font-weight="400" font-size="165" transform="matrix(1 0 0 1 467.707 1061)">o</text><text fill="#FFFFFF" font-family="Funnel Sans,Funnel Sans_MSFontService,sans-serif" font-weight="400" font-size="165" transform="matrix(1 0 0 1 561.093 1061)">ndati</text><text fill="#FFFFFF" font-family="Funnel Sans,Funnel Sans_MSFontService,sans-serif" font-weight="400" font-size="165" transform="matrix(1 0 0 1 934.635 1061)">x </text></g></svg>