<svg width="1069" height="532" xmlns="http://www.w3.org/2000/svg" xmlns:xlink="http://www.w3.org/1999/xlink" xml:space="preserve" overflow="hidden"><g transform="translate(-1567 -1026)"><path d="M1844.88 1353.68C1868.51 1344.35 1895.24 1355.95 1904.57 1379.58L1930.7 1445.75C1940.03 1469.39 1928.43 1496.11 1904.8 1505.44L1904.8 1505.44C1881.16 1514.78 1854.43 1503.18 1845.1 1479.54L1818.98 1413.38C1809.65 1389.74 1821.24 1363.01 1844.88 1353.68Z" fill="#2D1B4E" fill-rule="evenodd"/><path d="M1716.99 1029.78C1740.63 1020.45 1767.35 1032.04 1776.68 1055.68L1776.68 1055.68C1786.02 1079.31 1774.42 1106.04 1750.78 1115.37L1750.78 1115.37C1727.15 1124.7 1700.42 1113.11 1691.09 1089.47L1691.09 1089.47C1681.76 1065.84 1693.35 1039.11 1716.99 1029.78Z" fill="#2D1B4E" fill-rule="evenodd"/><path d="M1773.56 1129.29C1788.94 1123.22 1806.33 1130.76 1812.4 1146.14L1827.23 1183.7C1833.3 1199.08 1825.76 1216.47 1810.38 1222.54L1780.48 1234.34C1765.1 1240.42 1747.71 1232.87 1741.64 1217.49L1726.81 1179.94C1720.74 1164.56 1728.28 1147.17 1743.66 1141.1Z" fill="#2D1B4E" fill-rule="evenodd"/><path d="M1570.73 1389.54C1561.4 1365.9 1573 1339.18 1596.63 1329.85L1982.2 1177.61C2005.84 1168.28 2032.57 1179.87 2041.9 1203.51L2041.9 1203.51C2051.23 1227.15 2039.63 1253.87 2016 1263.2L1630.43 1415.44C1606.79 1424.77 1580.06 1413.18 1570.73 1389.54Z" fill="#2D1B4E" fill-rule="evenodd"/><path d="M1664.57 1352.49C1655.24 1328.85 1666.84 1302.13 1690.47 1292.8L1923.53 1200.78C1947.16 1191.45 1973.89 1203.04 1983.22 1226.68L1983.22 1226.68C1992.55 1250.31 1980.96 1277.04 1957.32 1286.37L1724.27 1378.39C1700.63 1387.72 1673.91 1376.12 1664.57 1352.49Z" fill="#2D1B4E" fill-rule="evenodd"/><text fill="#2D1B4E" font-family="Funnel Sans,Funnel Sans_MSFontService,sans-serif" font-weight="400" font-size="183" transform="matrix(1 0 0 1 1916.39 1403)">ondati</text><text fill="#2D1B4E" font-family="Funnel Sans,Funnel Sans_MSFontService,sans-serif" font-weight="400" font-size="183" transform="matrix(1 0 0 1 2434.88 1403)">x</text><text fill="#2D1B4E" font-family="Funnel Sans,Funnel Sans_MSFontService,sans-serif" font-weight="400" font-size="64" transform="matrix(1 0 0 1 1954.21 1483)">DATENWERKSTATT</text></g></svg>