<svg width="1070" height="531" xmlns="http://www.w3.org/2000/svg" xmlns:xlink="http://www.w3.org/1999/xlink" xml:space="preserve" overflow="hidden"><g transform="translate(-2227 -10)"><path d="M2505.16 337.608C2528.79 328.276 2555.52 339.872 2564.85 363.507L2590.98 429.676C2600.31 453.312 2588.71 480.037 2565.08 489.37L2565.08 489.369C2541.44 498.702 2514.72 487.106 2505.38 463.47L2479.26 397.302C2469.93 373.666 2481.52 346.94 2505.16 337.608Z" fill="#232528" fill-rule="evenodd"/><path d="M2377.27 13.7029C2400.91 4.37077 2427.63 15.9663 2436.97 39.6022L2436.97 39.6022C2446.3 63.2381 2434.7 89.964 2411.07 99.2961L2411.07 99.2961C2387.43 108.628 2360.7 97.0328 2351.37 73.3969L2351.37 73.3969C2342.04 49.7609 2353.64 23.0351 2377.27 13.7029Z" fill="#232528" fill-rule="evenodd"/><path d="M2433.84 113.217C2449.22 107.145 2466.61 114.69 2472.68 130.068L2487.51 167.625C2493.58 183.003 2486.04 200.392 2470.66 206.464L2440.76 218.27C2425.38 224.342 2407.99 216.798 2401.92 201.419L2387.09 163.863C2381.02 148.485 2388.56 131.096 2403.94 125.024Z" fill="#232528" fill-rule="evenodd"/><path d="M2231.01 373.466C2221.68 349.83 2233.28 323.104 2256.91 313.772L2642.49 161.537C2666.12 152.205 2692.85 163.8 2702.18 187.436L2702.18 187.436C2711.51 211.072 2699.92 237.798 2676.28 247.13L2290.71 399.365C2267.07 408.698 2240.35 397.102 2231.01 373.466Z" fill="#232528" fill-rule="evenodd"/><path d="M2324.86 336.415C2315.52 312.779 2327.12 286.053 2350.76 276.721L2583.81 184.704C2607.45 175.372 2634.17 186.968 2643.5 210.604L2643.5 210.604C2652.84 234.24 2641.24 260.966 2617.6 270.298L2384.55 362.314C2360.91 371.646 2334.19 360.05 2324.86 336.414Z" fill="#232528" fill-rule="evenodd"/><text fill="#232528" font-family="Funnel Sans,Funnel Sans_MSFontService,sans-serif" font-weight="400" font-size="183" transform="matrix(1 0 0 1 2576.68 387)">ondatix</text><text fill="#232528" font-family="Funnel Sans,Funnel Sans_MSFontService,sans-serif" font-weight="400" font-size="64" transform="matrix(1 0 0 1 2614.49 467)">DATENWERKSTATT</text></g></svg>