<svg width="1984" height="347" xmlns="http://www.w3.org/2000/svg" xmlns:xlink="http://www.w3.org/1999/xlink" xml:space="preserve" overflow="hidden"><g transform="translate(-162 -1590)"><path d="M276.207 1737.74C285.567 1733 296.996 1736.75 301.736 1746.11L315.004 1772.31C319.744 1781.67 315.998 1793.1 306.639 1797.84L306.639 1797.84C297.279 1802.57 285.85 1798.83 281.11 1789.47L267.842 1763.27C263.103 1753.91 266.848 1742.48 276.207 1737.74Z" fill="#232528" fill-rule="evenodd"/><path d="M211.257 1609.48C220.617 1604.74 232.046 1608.48 236.786 1617.84L236.786 1617.84C241.525 1627.2 237.78 1638.63 228.42 1643.37L228.42 1643.37C219.061 1648.11 207.632 1644.37 202.892 1635.01L202.892 1635.01C198.153 1625.65 201.898 1614.22 211.257 1609.48Z" fill="#232528" fill-rule="evenodd"/><path d="M238.316 1648.22C244.406 1645.14 251.842 1647.58 254.926 1653.67L262.457 1668.54C265.54 1674.63 263.104 1682.06 257.014 1685.15L245.173 1691.14C239.083 1694.23 231.647 1691.79 228.563 1685.7L221.032 1670.83C217.949 1664.74 220.385 1657.3 226.475 1654.22Z" fill="#232528" fill-rule="evenodd"/><path d="M164.883 1762.96C160.144 1753.6 163.889 1742.17 173.249 1737.43L325.93 1660.11C335.289 1655.37 346.719 1659.12 351.459 1668.48L351.458 1668.48C356.198 1677.84 352.453 1689.27 343.093 1694.01L190.412 1771.32C181.052 1776.06 169.623 1772.32 164.883 1762.96Z" fill="#232528" fill-rule="evenodd"/><path d="M202.044 1744.14C197.304 1734.78 201.05 1723.35 210.409 1718.61L302.695 1671.88C312.055 1667.14 323.484 1670.88 328.224 1680.24L328.224 1680.24C332.963 1689.6 329.218 1701.03 319.858 1705.77L227.572 1752.51C218.213 1757.24 206.783 1753.5 202.044 1744.14Z" fill="#232528" fill-rule="evenodd"/><text fill="#232528" font-family="Funnel Sans,Funnel Sans_MSFontService,sans-serif" font-weight="400" font-size="165" transform="matrix(1 0 0 1 333.357 1798)">ondatix </text><text fill="#232528" font-family="Funnel Sans,Funnel Sans_MSFontService,sans-serif" font-weight="400" font-size="128" transform="matrix(1 0 0 1 922.888 1798)">DATENWERKSTATT</text></g></svg>