<svg width="1984" height="348" xmlns="http://www.w3.org/2000/svg" xmlns:xlink="http://www.w3.org/1999/xlink" xml:space="preserve" overflow="hidden"><g transform="translate(-178 -756)"><path d="M291.814 904.375C301.174 899.636 312.603 903.381 317.343 912.741L330.611 938.942C335.351 948.302 331.605 959.731 322.246 964.471L322.246 964.471C312.886 969.21 301.457 965.465 296.717 956.106L283.449 929.904C278.71 920.544 282.455 909.115 291.815 904.375Z" fill="#5BC4A0" fill-rule="evenodd"/><path d="M226.864 776.113C236.224 771.374 247.653 775.119 252.393 784.479L252.393 784.479C257.132 793.838 253.387 805.267 244.028 810.007L244.028 810.007C234.668 814.746 223.239 811.001 218.499 801.642L218.499 801.642C213.76 792.282 217.505 780.853 226.864 776.113Z" fill="#FFFFFF" fill-rule="evenodd"/><path d="M253.923 814.859C260.013 811.776 267.449 814.212 270.533 820.302L278.064 835.174C281.148 841.263 278.711 848.7 272.621 851.784L260.78 857.78C254.69 860.864 247.254 858.427 244.17 852.337L236.639 837.465C233.556 831.376 235.993 823.939 242.082 820.856Z" fill="#FFC947" fill-rule="evenodd"/><path d="M180.491 929.593C175.751 920.233 179.496 908.804 188.856 904.064L341.537 826.749C350.897 822.009 362.326 825.754 367.066 835.114L367.066 835.114C371.805 844.474 368.06 855.903 358.7 860.643L206.019 937.958C196.66 942.698 185.23 938.952 180.49 929.593Z" fill="#B6A6F6" fill-rule="evenodd"/><path d="M217.651 910.776C212.911 901.416 216.657 889.987 226.016 885.247L318.302 838.515C327.662 833.775 339.091 837.52 343.831 846.88L343.831 846.88C348.57 856.24 344.825 867.669 335.466 872.409L243.18 919.141C233.82 923.88 222.391 920.135 217.651 910.776Z" fill="#B6A6F6" fill-rule="evenodd"/><text fill="#FFFFFF" font-family="Funnel Sans,Funnel Sans_MSFontService,sans-serif" font-weight="400" font-size="165" transform="matrix(1 0 0 1 348.964 964)">ondatix </text><text fill="#FFFFFF" font-family="Funnel Sans,Funnel Sans_MSFontService,sans-serif" font-weight="400" font-size="128" transform="matrix(1 0 0 1 938.495 964)">DATENWERKSTATT</text></g></svg>