<svg width="523" height="527" xmlns="http://www.w3.org/2000/svg" xmlns:xlink="http://www.w3.org/1999/xlink" xml:space="preserve" overflow="hidden"><g transform="translate(-2312 -406)"><path d="M2622.52 762.822C2648.12 749.856 2679.39 760.102 2692.36 785.708L2728.66 857.39C2741.62 882.996 2731.38 914.265 2705.77 927.231L2705.77 927.231C2680.17 940.197 2648.9 929.951 2635.93 904.345L2599.63 832.663C2586.67 807.057 2596.91 775.789 2622.52 762.822Z" fill="#FFFFFF" fill-rule="evenodd"/><path d="M2444.83 411.924C2470.43 398.958 2501.7 409.204 2514.67 434.81L2514.67 434.81C2527.63 460.416 2517.39 491.684 2491.78 504.651L2491.78 504.651C2466.18 517.617 2434.91 507.371 2421.94 481.765L2421.94 481.765C2408.98 456.159 2419.22 424.891 2444.83 411.924Z" fill="#FFFFFF" fill-rule="evenodd"/><path d="M2518.86 517.925C2535.52 509.488 2555.86 516.155 2564.3 532.815L2584.9 573.501C2593.34 590.161 2586.67 610.505 2570.01 618.942L2537.61 635.346C2520.95 643.782 2500.61 637.116 2492.17 620.456L2471.57 579.77C2463.13 563.11 2469.8 542.765 2486.46 534.329Z" fill="#FFFFFF" fill-rule="evenodd"/><path d="M2317.96 831.811C2304.99 806.206 2315.24 774.937 2340.84 761.971L2758.55 550.451C2784.15 537.485 2815.42 547.731 2828.39 573.337L2828.39 573.337C2841.36 598.943 2831.11 630.211 2805.5 643.177L2387.8 854.697C2362.19 867.663 2330.93 857.417 2317.96 831.811Z" fill="#FFFFFF" fill-rule="evenodd"/><path d="M2419.62 780.331C2406.65 754.725 2416.9 723.457 2442.51 710.49L2442.51 710.49C2468.11 697.524 2499.38 707.77 2512.35 733.376L2512.35 733.376C2525.31 758.981 2515.07 790.25 2489.46 803.216L2489.46 803.216C2463.86 816.183 2432.59 805.937 2419.62 780.331Z" fill="#FFFFFF" fill-rule="evenodd"/></g></svg>