<svg width="632" height="632" xmlns="http://www.w3.org/2000/svg" xmlns:xlink="http://www.w3.org/1999/xlink" xml:space="preserve" overflow="hidden"><g transform="translate(-542 -467)"><path d="M546.5 783C546.5 610.963 685.963 471.5 858 471.5 1030.04 471.5 1169.5 610.963 1169.5 783 1169.5 955.037 1030.04 1094.5 858 1094.5 685.963 1094.5 546.5 955.037 546.5 783Z" stroke="#FFFFFF" stroke-width="9.16667" stroke-linejoin="round" stroke-miterlimit="10" fill="#FFFFFF" fill-rule="evenodd"/><path d="M919.828 868.016C945.434 855.05 976.703 865.296 989.669 890.902L1025.97 962.584C1038.93 988.19 1028.69 1019.46 1003.08 1032.43L1003.08 1032.42C977.477 1045.39 946.208 1035.15 933.241 1009.54L896.943 937.857C883.976 912.251 894.223 880.983 919.828 868.016Z" fill="#5BC4A0" fill-rule="evenodd"/><path d="M742.139 517.118C767.744 504.152 799.013 514.398 811.979 540.004L811.979 540.004C824.946 565.61 814.699 596.878 789.094 609.845L789.094 609.845C763.488 622.811 732.219 612.565 719.253 586.959L719.253 586.959C706.287 561.353 716.533 530.085 742.139 517.118Z" fill="#2D1B4E" fill-rule="evenodd"/><path d="M816.167 623.119C832.827 614.682 853.171 621.349 861.608 638.009L882.21 678.695C890.647 695.355 883.98 715.699 867.32 724.136L834.926 740.54C818.266 748.976 797.921 742.31 789.484 725.65L768.882 684.964C760.445 668.304 767.112 647.959 783.772 639.523Z" fill="#FFC947" fill-rule="evenodd"/><path d="M615.27 937.005C602.303 911.4 612.55 880.131 638.155 867.165L1055.86 655.645C1081.46 642.679 1112.73 652.925 1125.7 678.531L1125.7 678.531C1138.67 704.137 1128.42 735.405 1102.81 748.371L685.11 959.891C659.505 972.857 628.236 962.611 615.27 937.005Z" fill="#B6A6F6" fill-rule="evenodd"/><path d="M716.932 885.525C703.966 859.919 714.212 828.651 739.818 815.684L739.818 815.684C765.423 802.718 796.692 812.964 809.658 838.57L809.658 838.57C822.625 864.175 812.378 895.444 786.773 908.41L786.773 908.41C761.167 921.377 729.899 911.131 716.932 885.525Z" fill="#B6A6F6" fill-rule="evenodd"/></g></svg>