<svg width="958" height="347" xmlns="http://www.w3.org/2000/svg" xmlns:xlink="http://www.w3.org/1999/xlink" xml:space="preserve" overflow="hidden"><g transform="translate(-199 -1213)"><path d="M410.733 1360.73C420.093 1355.99 431.522 1359.73 436.262 1369.09L449.53 1395.29C454.269 1404.65 450.524 1416.08 441.165 1420.82L441.165 1420.82C431.805 1425.56 420.376 1421.82 415.636 1412.46L402.368 1386.26C397.629 1376.9 401.374 1365.47 410.733 1360.73Z" fill="#5BC4A0" fill-rule="evenodd"/><path d="M345.783 1232.47C355.143 1227.73 366.572 1231.47 371.312 1240.83L371.312 1240.83C376.051 1250.19 372.306 1261.62 362.946 1266.36L362.946 1266.36C353.587 1271.1 342.157 1267.35 337.418 1257.99L337.418 1257.99C332.678 1248.63 336.424 1237.2 345.783 1232.47Z" fill="#2D1B4E" fill-rule="evenodd"/><path d="M372.842 1271.21C378.932 1268.13 386.368 1270.56 389.452 1276.65L396.983 1291.53C400.066 1297.62 397.63 1305.05 391.54 1308.14L379.699 1314.13C373.609 1317.22 366.173 1314.78 363.089 1308.69L355.558 1293.82C352.474 1287.73 354.911 1280.29 361.001 1277.21Z" fill="#FFC947" fill-rule="evenodd"/><path d="M299.409 1385.94C294.67 1376.59 298.415 1365.16 307.775 1360.42L460.456 1283.1C469.815 1278.36 481.245 1282.11 485.985 1291.47L485.984 1291.47C490.724 1300.83 486.979 1312.26 477.619 1316.99L324.938 1394.31C315.578 1399.05 304.149 1395.3 299.409 1385.94Z" fill="#B6A6F6" fill-rule="evenodd"/><path d="M336.57 1367.13C331.83 1357.77 335.575 1346.34 344.935 1341.6L437.221 1294.87C446.58 1290.13 458.01 1293.87 462.75 1303.23L462.75 1303.23C467.489 1312.59 463.744 1324.02 454.384 1328.76L362.098 1375.49C352.739 1380.23 341.309 1376.49 336.57 1367.13Z" fill="#B6A6F6" fill-rule="evenodd"/><text fill="#2D1B4E" font-family="Funnel Sans,Funnel Sans_MSFontService,sans-serif" font-weight="400" font-size="165" transform="matrix(1 0 0 1 467.707 1421)">o</text><text fill="#2D1B4E" font-family="Funnel Sans,Funnel Sans_MSFontService,sans-serif" font-weight="400" font-size="165" transform="matrix(1 0 0 1 561.093 1421)">ndati</text><text fill="#2D1B4E" font-family="Funnel Sans,Funnel Sans_MSFontService,sans-serif" font-weight="400" font-size="165" transform="matrix(1 0 0 1 934.635 1421)">x </text></g></svg>