<svg width="633" height="633" xmlns="http://www.w3.org/2000/svg" xmlns:xlink="http://www.w3.org/1999/xlink" xml:space="preserve" overflow="hidden"><g transform="translate(-2417 -1015)"><path d="M2421.5 1331.5C2421.5 1159.19 2561.19 1019.5 2733.5 1019.5 2905.81 1019.5 3045.5 1159.19 3045.5 1331.5 3045.5 1503.81 2905.81 1643.5 2733.5 1643.5 2561.19 1643.5 2421.5 1503.81 2421.5 1331.5Z" stroke="#2D1B4E" stroke-width="9.16667" stroke-linejoin="round" stroke-miterlimit="10" fill="#2D1B4E" fill-rule="evenodd"/><path d="M2795.39 1416.8C2821 1403.83 2852.27 1414.08 2865.23 1439.68L2901.53 1511.37C2914.5 1536.97 2904.25 1568.24 2878.65 1581.21L2878.65 1581.21C2853.04 1594.17 2821.77 1583.93 2808.81 1558.32L2772.51 1486.64C2759.54 1461.03 2769.79 1429.76 2795.39 1416.8Z" fill="#FFFBF3" fill-rule="evenodd"/><path d="M2617.7 1065.9C2643.31 1052.93 2674.58 1063.18 2687.54 1088.79L2687.54 1088.79C2700.51 1114.39 2690.26 1145.66 2664.66 1158.63L2664.66 1158.63C2639.05 1171.59 2607.78 1161.35 2594.82 1135.74L2594.82 1135.74C2581.85 1110.14 2592.1 1078.87 2617.7 1065.9Z" fill="#FFFFFF" fill-rule="evenodd"/><path d="M2691.73 1171.9C2708.39 1163.46 2728.74 1170.13 2737.17 1186.79L2757.77 1227.48C2766.21 1244.14 2759.54 1264.48 2742.88 1272.92L2710.49 1289.32C2693.83 1297.76 2673.49 1291.09 2665.05 1274.43L2644.45 1233.75C2636.01 1217.09 2642.68 1196.74 2659.34 1188.3Z" fill="#FFFBF3" fill-rule="evenodd"/><path d="M2490.83 1485.79C2477.87 1460.18 2488.11 1428.91 2513.72 1415.95L2931.42 1204.43C2957.03 1191.46 2988.3 1201.71 3001.26 1227.31L3001.26 1227.31C3014.23 1252.92 3003.98 1284.19 2978.38 1297.15L2560.68 1508.67C2535.07 1521.64 2503.8 1511.39 2490.83 1485.79Z" fill="#FFFBF3" fill-rule="evenodd"/></g></svg>