<svg width="633" height="632" xmlns="http://www.w3.org/2000/svg" xmlns:xlink="http://www.w3.org/1999/xlink" xml:space="preserve" overflow="hidden"><g transform="translate(-1074 -989)"><path d="M1078.5 1305C1078.5 1132.96 1218.19 993.5 1390.5 993.5 1562.81 993.5 1702.5 1132.96 1702.5 1305 1702.5 1477.04 1562.81 1616.5 1390.5 1616.5 1218.19 1616.5 1078.5 1477.04 1078.5 1305Z" stroke="#FFFFFF" stroke-width="9.16667" stroke-linejoin="round" stroke-miterlimit="10" fill="#FFFFFF" fill-rule="evenodd"/><path d="M1452.11 1390.25C1477.72 1377.29 1508.98 1387.53 1521.95 1413.14L1558.25 1484.82C1571.22 1510.43 1560.97 1541.69 1535.36 1554.66L1535.36 1554.66C1509.76 1567.63 1478.49 1557.38 1465.52 1531.77L1429.22 1460.09C1416.26 1434.49 1426.5 1403.22 1452.11 1390.25Z" fill="#2D1B4E" fill-rule="evenodd"/><path d="M1274.42 1039.35C1300.03 1026.39 1331.29 1036.63 1344.26 1062.24L1344.26 1062.24C1357.23 1087.84 1346.98 1119.11 1321.38 1132.08L1321.38 1132.08C1295.77 1145.05 1264.5 1134.8 1251.53 1109.19L1251.53 1109.19C1238.57 1083.59 1248.81 1052.32 1274.42 1039.35Z" fill="#2D1B4E" fill-rule="evenodd"/><path d="M1348.45 1145.35C1365.11 1136.92 1385.45 1143.58 1393.89 1160.24L1414.49 1200.93C1422.93 1217.59 1416.26 1237.93 1399.6 1246.37L1367.21 1262.78C1350.55 1271.21 1330.2 1264.55 1321.77 1247.89L1301.16 1207.2C1292.73 1190.54 1299.39 1170.19 1316.05 1161.76Z" fill="#2D1B4E" fill-rule="evenodd"/><path d="M1147.55 1459.24C1134.59 1433.63 1144.83 1402.37 1170.44 1389.4L1588.14 1177.88C1613.75 1164.91 1645.02 1175.16 1657.98 1200.77L1657.98 1200.77C1670.95 1226.37 1660.7 1257.64 1635.1 1270.61L1217.39 1482.13C1191.79 1495.09 1160.52 1484.85 1147.55 1459.24Z" fill="#2D1B4E" fill-rule="evenodd"/></g></svg>