<svg width="523" height="527" xmlns="http://www.w3.org/2000/svg" xmlns:xlink="http://www.w3.org/1999/xlink" xml:space="preserve" overflow="hidden"><g transform="translate(-346 -483)"><path d="M656.79 839.833C682.395 826.867 713.664 837.113 726.63 862.719L762.929 934.401C775.896 960.007 765.649 991.276 740.044 1004.24L740.044 1004.24C714.438 1017.21 683.169 1006.96 670.203 981.356L633.904 909.674C620.938 884.068 631.184 852.8 656.79 839.833Z" fill="#5BC4A0" fill-rule="evenodd"/><path d="M479.1 488.935C504.706 475.969 535.974 486.215 548.941 511.821L548.941 511.821C561.907 537.426 551.661 568.695 526.055 581.661L526.055 581.661C500.45 594.628 469.181 584.381 456.215 558.776L456.215 558.776C443.248 533.17 453.495 501.902 479.1 488.935Z" fill="#2D1B4E" fill-rule="evenodd"/><path d="M553.128 594.935C569.788 586.499 590.133 593.166 598.569 609.826L619.172 650.512C627.608 667.172 620.942 687.516 604.282 695.953L571.887 712.357C555.227 720.793 534.882 714.127 526.446 697.467L505.843 656.781C497.407 640.121 504.073 619.776 520.733 611.34Z" fill="#FFC947" fill-rule="evenodd"/><path d="M352.231 908.822C339.265 883.217 349.511 851.948 375.117 838.982L792.821 627.462C818.426 614.496 849.695 624.742 862.661 650.348L862.661 650.348C875.628 675.953 865.382 707.222 839.776 720.188L422.072 931.708C396.466 944.674 365.198 934.428 352.231 908.822Z" fill="#B6A6F6" fill-rule="evenodd"/><path d="M453.894 857.342C440.927 831.736 451.174 800.468 476.779 787.501L476.779 787.501C502.385 774.535 533.653 784.781 546.62 810.387L546.62 810.387C559.586 835.992 549.34 867.261 523.734 880.227L523.734 880.227C498.129 893.194 466.86 882.947 453.894 857.342Z" fill="#B6A6F6" fill-rule="evenodd"/></g></svg>