<svg width="958" height="347" xmlns="http://www.w3.org/2000/svg" xmlns:xlink="http://www.w3.org/1999/xlink" xml:space="preserve" overflow="hidden"><g transform="translate(-199 -536)"><path d="M410.733 684.119C420.093 679.38 431.522 683.125 436.262 692.484L449.53 718.686C454.269 728.046 450.524 739.475 441.165 744.215L441.165 744.215C431.805 748.954 420.376 745.209 415.636 735.849L402.368 709.648C397.629 700.288 401.374 688.859 410.733 684.119Z" fill="#2D1B4E" fill-rule="evenodd"/><path d="M345.783 555.857C355.143 551.118 366.572 554.863 371.312 564.222L371.312 564.222C376.051 573.582 372.306 585.011 362.946 589.751L362.946 589.751C353.587 594.49 342.157 590.745 337.418 581.385L337.418 581.385C332.678 572.026 336.424 560.597 345.783 555.857Z" fill="#2D1B4E" fill-rule="evenodd"/><path d="M372.842 594.603C378.932 591.519 386.368 593.956 389.452 600.046L396.983 614.918C400.066 621.007 397.63 628.444 391.54 631.527L379.699 637.524C373.609 640.607 366.173 638.17 363.089 632.081L355.558 617.209C352.474 611.119 354.911 603.683 361.001 600.599Z" fill="#2D1B4E" fill-rule="evenodd"/><path d="M299.409 709.337C294.67 699.977 298.415 688.547 307.775 683.808L460.456 606.492C469.815 601.753 481.245 605.498 485.985 614.858L485.984 614.858C490.724 624.217 486.979 635.647 477.619 640.387L324.938 717.702C315.578 722.441 304.149 718.696 299.409 709.337Z" fill="#2D1B4E" fill-rule="evenodd"/><path d="M336.57 690.519C331.83 681.16 335.575 669.73 344.935 664.991L437.221 618.258C446.58 613.519 458.01 617.264 462.75 626.624L462.75 626.624C467.489 635.983 463.744 647.413 454.384 652.152L362.098 698.885C352.739 703.624 341.309 699.879 336.57 690.519Z" fill="#2D1B4E" fill-rule="evenodd"/><text fill="#2D1B4E" font-family="Funnel Sans,Funnel Sans_MSFontService,sans-serif" font-weight="400" font-size="165" transform="matrix(1 0 0 1 467.707 744)">o</text><text fill="#2D1B4E" font-family="Funnel Sans,Funnel Sans_MSFontService,sans-serif" font-weight="400" font-size="165" transform="matrix(1 0 0 1 561.093 744)">ndati</text><text fill="#2D1B4E" font-family="Funnel Sans,Funnel Sans_MSFontService,sans-serif" font-weight="400" font-size="165" transform="matrix(1 0 0 1 934.635 744)">x </text></g></svg>