<svg width="1984" height="348" xmlns="http://www.w3.org/2000/svg" xmlns:xlink="http://www.w3.org/1999/xlink" xml:space="preserve" overflow="hidden"><g transform="translate(-178 -481)"><path d="M291.814 629.375C301.174 624.636 312.603 628.381 317.343 637.741L330.611 663.942C335.351 673.302 331.605 684.731 322.246 689.471L322.246 689.471C312.886 694.21 301.457 690.465 296.717 681.106L283.449 654.904C278.71 645.544 282.455 634.115 291.815 629.375Z" fill="#5BC4A0" fill-rule="evenodd"/><path d="M226.864 501.113C236.224 496.374 247.653 500.119 252.393 509.479L252.393 509.479C257.132 518.838 253.387 530.267 244.028 535.007L244.028 535.007C234.668 539.746 223.239 536.001 218.499 526.642L218.499 526.642C213.76 517.282 217.505 505.853 226.864 501.113Z" fill="#2D1B4E" fill-rule="evenodd"/><path d="M253.923 539.859C260.013 536.776 267.449 539.212 270.533 545.302L278.064 560.174C281.148 566.263 278.711 573.7 272.621 576.784L260.78 582.78C254.69 585.864 247.254 583.427 244.17 577.337L236.639 562.465C233.556 556.376 235.993 548.939 242.082 545.856Z" fill="#FFC947" fill-rule="evenodd"/><path d="M180.491 654.593C175.751 645.233 179.496 633.804 188.856 629.064L341.537 551.749C350.897 547.009 362.326 550.754 367.066 560.114L367.066 560.114C371.805 569.474 368.06 580.903 358.7 585.643L206.019 662.958C196.66 667.698 185.23 663.952 180.49 654.593Z" fill="#B6A6F6" fill-rule="evenodd"/><path d="M217.651 635.776C212.911 626.416 216.657 614.987 226.016 610.247L318.302 563.515C327.662 558.775 339.091 562.52 343.831 571.88L343.831 571.88C348.57 581.24 344.825 592.669 335.466 597.409L243.18 644.141C233.82 648.88 222.391 645.135 217.651 635.776Z" fill="#B6A6F6" fill-rule="evenodd"/><text fill="#2D1B4E" font-family="Funnel Sans,Funnel Sans_MSFontService,sans-serif" font-weight="400" font-size="165" transform="matrix(1 0 0 1 348.964 689)">ondatix </text><text fill="#2D1B4E" font-family="Funnel Sans,Funnel Sans_MSFontService,sans-serif" font-weight="400" font-size="128" transform="matrix(1 0 0 1 938.495 689)">DATENWERKSTATT</text></g></svg>