<svg width="523" height="528" xmlns="http://www.w3.org/2000/svg" xmlns:xlink="http://www.w3.org/1999/xlink" xml:space="preserve" overflow="hidden"><g transform="translate(-1305 -432)"><path d="M1615.71 789.369C1641.31 776.403 1672.58 786.649 1685.55 812.255L1721.85 883.937C1734.81 909.543 1724.57 940.812 1698.96 953.778L1698.96 953.778C1673.36 966.744 1642.09 956.498 1629.12 930.892L1592.82 859.21C1579.86 833.604 1590.1 802.336 1615.71 789.369Z" fill="#5BC4A0" fill-rule="evenodd"/><path d="M1438.02 438.471C1463.62 425.505 1494.89 435.751 1507.86 461.357L1507.86 461.357C1520.82 486.962 1510.58 518.231 1484.97 531.197L1484.97 531.197C1459.37 544.164 1428.1 533.918 1415.13 508.312L1415.13 508.312C1402.17 482.706 1412.41 451.438 1438.02 438.471Z" fill="#FFFFFF" fill-rule="evenodd"/><path d="M1512.05 544.471C1528.71 536.035 1549.05 542.702 1557.49 559.362L1578.09 600.048C1586.53 616.708 1579.86 637.052 1563.2 645.489L1530.8 661.893C1514.14 670.329 1493.8 663.663 1485.36 647.003L1464.76 606.317C1456.32 589.657 1462.99 569.312 1479.65 560.876Z" fill="#FFC947" fill-rule="evenodd"/><path d="M1311.15 858.358C1298.18 832.753 1308.43 801.484 1334.03 788.518L1751.74 576.998C1777.34 564.032 1808.61 574.278 1821.58 599.884L1821.58 599.884C1834.55 625.489 1824.3 656.758 1798.69 669.724L1380.99 881.244C1355.38 894.21 1324.11 883.964 1311.15 858.358Z" fill="#B6A6F6" fill-rule="evenodd"/><path d="M1412.81 806.878C1399.84 781.272 1410.09 750.004 1435.7 737.037L1435.7 737.037C1461.3 724.071 1492.57 734.317 1505.54 759.923L1505.54 759.923C1518.5 785.528 1508.26 816.797 1482.65 829.763L1482.65 829.763C1457.05 842.73 1425.78 832.483 1412.81 806.878Z" fill="#B6A6F6" fill-rule="evenodd"/></g></svg>