<svg width="1069" height="532" xmlns="http://www.w3.org/2000/svg" xmlns:xlink="http://www.w3.org/1999/xlink" xml:space="preserve" overflow="hidden"><g transform="translate(-1601 -354)"><path d="M1878.77 681.797C1902.4 672.465 1929.13 684.061 1938.46 707.697L1964.58 773.865C1973.92 797.501 1962.32 824.227 1938.69 833.559L1938.69 833.559C1915.05 842.891 1888.32 831.295 1878.99 807.659L1852.87 741.491C1843.53 717.855 1855.13 691.13 1878.77 681.797Z" fill="#FFFFFF" fill-rule="evenodd"/><path d="M1750.88 357.892C1774.51 348.56 1801.24 360.155 1810.57 383.791L1810.57 383.791C1819.9 407.427 1808.31 434.153 1784.67 443.485L1784.67 443.485C1761.04 452.817 1734.31 441.222 1724.98 417.586L1724.98 417.586C1715.65 393.95 1727.24 367.224 1750.88 357.892Z" fill="#FFFFFF" fill-rule="evenodd"/><path d="M1807.45 457.406C1822.83 451.335 1840.22 458.879 1846.29 474.258L1861.12 511.814C1867.19 527.192 1859.65 544.581 1844.27 550.653L1814.37 562.46C1798.99 568.531 1781.6 560.987 1775.53 545.608L1760.7 508.052C1754.63 492.674 1762.17 475.285 1777.55 469.213Z" fill="#FFFFFF" fill-rule="evenodd"/><path d="M1604.62 717.655C1595.29 694.019 1606.88 667.294 1630.52 657.961L2016.09 505.726C2039.73 496.394 2066.45 507.99 2075.79 531.626L2075.79 531.626C2085.12 555.261 2073.52 581.987 2049.89 591.319L1664.31 743.555C1640.68 752.887 1613.95 741.291 1604.62 717.655Z" fill="#FFFFFF" fill-rule="evenodd"/><path d="M1698.46 680.604C1689.13 656.968 1700.73 630.242 1724.36 620.91L1957.42 528.894C1981.05 519.561 2007.78 531.157 2017.11 554.793L2017.11 554.793C2026.44 578.429 2014.85 605.155 1991.21 614.487L1758.16 706.503C1734.52 715.835 1707.8 704.24 1698.46 680.604Z" fill="#FFFFFF" fill-rule="evenodd"/><text fill="#FFFFFF" font-family="Funnel Sans,Funnel Sans_MSFontService,sans-serif" font-weight="400" font-size="183" transform="matrix(1 0 0 1 1950.28 731)">ondati</text><text fill="#FFFFFF" font-family="Funnel Sans,Funnel Sans_MSFontService,sans-serif" font-weight="400" font-size="183" transform="matrix(1 0 0 1 2468.77 731)">x</text><text fill="#FFFFFF" font-family="Funnel Sans,Funnel Sans_MSFontService,sans-serif" font-weight="400" font-size="64" transform="matrix(1 0 0 1 1988.1 811)">DATENWERKSTATT</text></g></svg>