<svg width="523" height="528" xmlns="http://www.w3.org/2000/svg" xmlns:xlink="http://www.w3.org/1999/xlink" xml:space="preserve" overflow="hidden"><g transform="translate(-1529 -1162)"><path d="M1839.55 1519.19C1865.16 1506.22 1896.42 1516.47 1909.39 1542.07L1945.69 1613.76C1958.66 1639.36 1948.41 1670.63 1922.8 1683.6L1922.8 1683.6C1897.2 1696.56 1865.93 1686.32 1852.96 1660.71L1816.66 1589.03C1803.7 1563.42 1813.94 1532.15 1839.55 1519.19Z" fill="#2D1B4E" fill-rule="evenodd"/><path d="M1661.86 1168.29C1687.47 1155.32 1718.73 1165.57 1731.7 1191.17L1731.7 1191.17C1744.67 1216.78 1734.42 1248.05 1708.82 1261.02L1708.82 1261.02C1683.21 1273.98 1651.94 1263.74 1638.97 1238.13L1638.97 1238.13C1626.01 1212.52 1636.25 1181.26 1661.86 1168.29Z" fill="#2D1B4E" fill-rule="evenodd"/><path d="M1735.89 1274.29C1752.55 1265.85 1772.89 1272.52 1781.33 1289.18L1801.93 1329.87C1810.37 1346.53 1803.7 1366.87 1787.04 1375.31L1754.65 1391.71C1737.99 1400.15 1717.64 1393.48 1709.21 1376.82L1688.6 1336.13C1680.17 1319.47 1686.83 1299.13 1703.49 1290.69Z" fill="#2D1B4E" fill-rule="evenodd"/><path d="M1534.99 1588.18C1522.02 1562.57 1532.27 1531.3 1557.88 1518.34L1975.58 1306.82C2001.19 1293.85 2032.45 1304.1 2045.42 1329.7L2045.42 1329.7C2058.39 1355.31 2048.14 1386.58 2022.54 1399.54L1604.83 1611.06C1579.23 1624.03 1547.96 1613.78 1534.99 1588.18Z" fill="#2D1B4E" fill-rule="evenodd"/><path d="M1636.65 1536.7C1623.69 1511.09 1633.93 1479.82 1659.54 1466.86L1659.54 1466.86C1685.14 1453.89 1716.41 1464.14 1729.38 1489.74L1729.38 1489.74C1742.35 1515.35 1732.1 1546.61 1706.49 1559.58L1706.49 1559.58C1680.89 1572.55 1649.62 1562.3 1636.65 1536.7Z" fill="#2D1B4E" fill-rule="evenodd"/></g></svg>