<svg width="958" height="348" xmlns="http://www.w3.org/2000/svg" xmlns:xlink="http://www.w3.org/1999/xlink" xml:space="preserve" overflow="hidden"><g transform="translate(-2074 -430)"><path d="M2285.82 578.413C2295.18 573.674 2306.61 577.419 2311.35 586.778L2324.61 612.98C2329.35 622.34 2325.61 633.769 2316.25 638.509L2316.25 638.509C2306.89 643.248 2295.46 639.503 2290.72 630.143L2277.45 603.942C2272.71 594.582 2276.46 583.153 2285.82 578.413Z" fill="#232528" fill-rule="evenodd"/><path d="M2220.87 450.151C2230.23 445.411 2241.66 449.157 2246.4 458.516L2246.4 458.516C2251.14 467.876 2247.39 479.305 2238.03 484.045L2238.03 484.045C2228.67 488.784 2217.24 485.039 2212.5 475.679L2212.5 475.679C2207.76 466.32 2211.51 454.89 2220.87 450.151Z" fill="#232528" fill-rule="evenodd"/><path d="M2247.93 488.897C2254.02 485.813 2261.45 488.25 2264.54 494.34L2272.07 509.211C2275.15 515.301 2272.71 522.738 2266.62 525.821L2254.78 531.817C2248.69 534.901 2241.26 532.464 2238.17 526.375L2230.64 511.503C2227.56 505.413 2230 497.977 2236.09 494.893Z" fill="#232528" fill-rule="evenodd"/><path d="M2174.49 603.631C2169.75 594.271 2173.5 582.841 2182.86 578.102L2335.54 500.786C2344.9 496.047 2356.33 499.792 2361.07 509.152L2361.07 509.152C2365.81 518.511 2362.06 529.941 2352.7 534.681L2200.02 611.996C2190.66 616.735 2179.23 612.99 2174.49 603.63Z" fill="#232528" fill-rule="evenodd"/><path d="M2211.65 584.813C2206.92 575.454 2210.66 564.024 2220.02 559.285L2312.31 512.552C2321.67 507.813 2333.09 511.558 2337.83 520.918L2337.83 520.918C2342.57 530.277 2338.83 541.707 2329.47 546.446L2237.18 593.179C2227.82 597.918 2216.39 594.173 2211.65 584.813Z" fill="#232528" fill-rule="evenodd"/><text fill="#232528" font-family="Funnel Sans,Funnel Sans_MSFontService,sans-serif" font-weight="400" font-size="165" transform="matrix(1 0 0 1 2342.79 638)">ondatix </text></g></svg>