<svg width="1984" height="348" xmlns="http://www.w3.org/2000/svg" xmlns:xlink="http://www.w3.org/1999/xlink" xml:space="preserve" overflow="hidden"><g transform="translate(-178 -1342)"><path d="M291.814 1490.27C301.174 1485.53 312.603 1489.28 317.343 1498.64L330.611 1524.84C335.351 1534.2 331.605 1545.63 322.246 1550.37L322.246 1550.37C312.886 1555.11 301.457 1551.36 296.717 1542L283.449 1515.8C278.71 1506.44 282.455 1495.01 291.815 1490.27Z" fill="#FFFFFF" fill-rule="evenodd"/><path d="M226.864 1362.01C236.224 1357.27 247.653 1361.01 252.393 1370.37L252.393 1370.37C257.132 1379.73 253.387 1391.16 244.028 1395.9L244.028 1395.9C234.668 1400.64 223.239 1396.9 218.499 1387.54L218.499 1387.54C213.76 1378.18 217.505 1366.75 226.864 1362.01Z" fill="#FFFFFF" fill-rule="evenodd"/><path d="M253.923 1400.75C260.013 1397.67 267.449 1400.11 270.533 1406.2L278.064 1421.07C281.148 1427.16 278.711 1434.59 272.621 1437.68L260.78 1443.67C254.69 1446.76 247.254 1444.32 244.17 1438.23L236.639 1423.36C233.556 1417.27 235.993 1409.83 242.082 1406.75Z" fill="#FFFFFF" fill-rule="evenodd"/><path d="M180.491 1515.49C175.751 1506.13 179.496 1494.7 188.856 1489.96L341.537 1412.64C350.897 1407.9 362.326 1411.65 367.066 1421.01L367.066 1421.01C371.805 1430.37 368.06 1441.8 358.7 1446.54L206.019 1523.85C196.66 1528.59 185.23 1524.85 180.49 1515.49Z" fill="#FFFFFF" fill-rule="evenodd"/><path d="M217.651 1496.67C212.911 1487.31 216.657 1475.88 226.016 1471.14L318.302 1424.41C327.662 1419.67 339.091 1423.42 343.831 1432.78L343.831 1432.78C348.57 1442.13 344.825 1453.56 335.466 1458.3L243.18 1505.04C233.82 1509.78 222.391 1506.03 217.651 1496.67Z" fill="#FFFFFF" fill-rule="evenodd"/><text fill="#FFFFFF" font-family="Funnel Sans,Funnel Sans_MSFontService,sans-serif" font-weight="400" font-size="165" transform="matrix(1 0 0 1 348.964 1550)">ondatix </text><text fill="#FFFFFF" font-family="Funnel Sans,Funnel Sans_MSFontService,sans-serif" font-weight="400" font-size="128" transform="matrix(1 0 0 1 938.495 1550)">DATENWERKSTATT</text></g></svg>