<svg width="1069" height="531" xmlns="http://www.w3.org/2000/svg" xmlns:xlink="http://www.w3.org/1999/xlink" xml:space="preserve" overflow="hidden"><g transform="translate(-208 -1081)"><path d="M485.622 1408.54C509.258 1399.21 535.984 1410.81 545.316 1434.44L571.441 1500.61C580.774 1524.25 569.178 1550.97 545.542 1560.31L545.542 1560.31C521.906 1569.64 495.18 1558.04 485.848 1534.41L459.723 1468.24C450.391 1444.6 461.987 1417.88 485.623 1408.54Z" fill="#5BC4A0" fill-rule="evenodd"/><path d="M357.735 1084.64C381.371 1075.31 408.097 1086.9 417.429 1110.54L417.429 1110.54C426.761 1134.17 415.166 1160.9 391.53 1170.23L391.53 1170.23C367.894 1179.56 341.168 1167.97 331.836 1144.33L331.836 1144.33C322.504 1120.7 334.099 1093.97 357.735 1084.64Z" fill="#FFFFFF" fill-rule="evenodd"/><path d="M414.309 1184.15C429.687 1178.08 447.076 1185.63 453.148 1201L467.976 1238.56C474.048 1253.94 466.504 1271.33 451.125 1277.4L421.222 1289.21C405.844 1295.28 388.455 1287.73 382.383 1272.35L367.555 1234.8C361.483 1219.42 369.027 1202.03 384.406 1195.96Z" fill="#FFC947" fill-rule="evenodd"/><path d="M211.478 1444.4C202.146 1420.77 213.741 1394.04 237.377 1384.71L622.949 1232.47C646.585 1223.14 673.311 1234.74 682.643 1258.37L682.643 1258.37C691.975 1282.01 680.38 1308.73 656.744 1318.07L271.172 1470.3C247.536 1479.63 220.81 1468.04 211.478 1444.4Z" fill="#B6A6F6" fill-rule="evenodd"/><path d="M305.321 1407.35C295.988 1383.71 307.584 1356.99 331.22 1347.66L564.273 1255.64C587.909 1246.31 614.635 1257.9 623.968 1281.54L623.967 1281.54C633.299 1305.18 621.704 1331.9 598.068 1341.23L365.015 1433.25C341.379 1442.58 314.653 1430.99 305.321 1407.35Z" fill="#B6A6F6" fill-rule="evenodd"/><text fill="#FFFFFF" font-family="Funnel Sans,Funnel Sans_MSFontService,sans-serif" font-weight="400" font-size="183" transform="matrix(1 0 0 1 557.14 1458)">ondati</text><text fill="#FFFFFF" font-family="Funnel Sans,Funnel Sans_MSFontService,sans-serif" font-weight="400" font-size="183" transform="matrix(1 0 0 1 1075.63 1458)">x</text><text fill="#FFFFFF" font-family="Funnel Sans,Funnel Sans_MSFontService,sans-serif" font-weight="400" font-size="64" transform="matrix(1 0 0 1 594.952 1538)">DATENWERKSTATT</text></g></svg>