<svg width="958" height="348" xmlns="http://www.w3.org/2000/svg" xmlns:xlink="http://www.w3.org/1999/xlink" xml:space="preserve" overflow="hidden"><g transform="translate(-1071 -525)"><path d="M1283.19 673.615C1292.55 668.876 1303.98 672.621 1308.72 681.981L1321.99 708.182C1326.73 717.542 1322.98 728.971 1313.62 733.711L1313.62 733.711C1304.26 738.45 1292.83 734.705 1288.09 725.346L1274.83 699.144C1270.09 689.784 1273.83 678.355 1283.19 673.615Z" fill="#FFFFFF" fill-rule="evenodd"/><path d="M1218.24 545.353C1227.6 540.614 1239.03 544.359 1243.77 553.719L1243.77 553.719C1248.51 563.078 1244.76 574.507 1235.4 579.247L1235.4 579.247C1226.04 583.986 1214.61 580.241 1209.88 570.882L1209.88 570.882C1205.14 561.522 1208.88 550.093 1218.24 545.353Z" fill="#FFFFFF" fill-rule="evenodd"/><path d="M1245.3 584.099C1251.39 581.016 1258.83 583.452 1261.91 589.542L1269.44 604.414C1272.52 610.503 1270.09 617.94 1264 621.024L1252.16 627.02C1246.07 630.104 1238.63 627.667 1235.55 621.577L1228.02 606.705C1224.93 600.616 1227.37 593.179 1233.46 590.096Z" fill="#FFFFFF" fill-rule="evenodd"/><path d="M1171.87 698.833C1167.13 689.473 1170.87 678.044 1180.23 673.304L1332.91 595.989C1342.27 591.249 1353.7 594.994 1358.44 604.354L1358.44 604.354C1363.18 613.714 1359.44 625.143 1350.08 629.883L1197.4 707.198C1188.04 711.938 1176.61 708.192 1171.87 698.833Z" fill="#FFFFFF" fill-rule="evenodd"/><path d="M1209.03 680.016C1204.29 670.656 1208.03 659.227 1217.39 654.487L1309.68 607.755C1319.04 603.015 1330.47 606.76 1335.21 616.12L1335.21 616.12C1339.95 625.48 1336.2 636.909 1326.84 641.649L1234.56 688.381C1225.2 693.12 1213.77 689.375 1209.03 680.016Z" fill="#FFFFFF" fill-rule="evenodd"/><text fill="#FFFFFF" font-family="Funnel Sans,Funnel Sans_MSFontService,sans-serif" font-weight="400" font-size="165" transform="matrix(1 0 0 1 1340.16 733)">o</text><text fill="#FFFFFF" font-family="Funnel Sans,Funnel Sans_MSFontService,sans-serif" font-weight="400" font-size="165" transform="matrix(1 0 0 1 1433.55 733)">ndati</text><text fill="#FFFFFF" font-family="Funnel Sans,Funnel Sans_MSFontService,sans-serif" font-weight="400" font-size="165" transform="matrix(1 0 0 1 1807.09 733)">x </text></g></svg>