<svg width="632" height="632" xmlns="http://www.w3.org/2000/svg" xmlns:xlink="http://www.w3.org/1999/xlink" xml:space="preserve" overflow="hidden"><g transform="translate(-1720 -392)"><path d="M1724.5 708C1724.5 535.963 1863.96 396.5 2036 396.5 2208.04 396.5 2347.5 535.963 2347.5 708 2347.5 880.037 2208.04 1019.5 2036 1019.5 1863.96 1019.5 1724.5 880.037 1724.5 708Z" stroke="#2D1B4E" stroke-width="9.16667" stroke-linejoin="round" stroke-miterlimit="10" fill="#2D1B4E" fill-rule="evenodd"/><path d="M2097.9 793.176C2123.5 780.21 2154.77 790.456 2167.74 816.061L2204.03 887.744C2217 913.35 2206.75 944.618 2181.15 957.585L2181.15 957.584C2155.54 970.551 2124.27 960.305 2111.31 934.699L2075.01 863.017C2062.04 837.411 2072.29 806.142 2097.9 793.176Z" fill="#5BC4A0" fill-rule="evenodd"/><path d="M1920.21 442.278C1945.81 429.312 1977.08 439.558 1990.05 465.164L1990.05 465.164C2003.01 490.769 1992.77 522.038 1967.16 535.004L1967.16 535.004C1941.55 547.97 1910.29 537.724 1897.32 512.119L1897.32 512.119C1884.35 486.513 1894.6 455.244 1920.21 442.278Z" fill="#FFFFFF" fill-rule="evenodd"/><path d="M1994.23 548.278C2010.89 539.842 2031.24 546.508 2039.67 563.168L2060.28 603.854C2068.71 620.514 2062.05 640.859 2045.39 649.295L2012.99 665.7C1996.33 674.136 1975.99 667.469 1967.55 650.809L1946.95 610.123C1938.51 593.463 1945.18 573.119 1961.84 564.682Z" fill="#FFC947" fill-rule="evenodd"/><path d="M1793.34 862.165C1780.37 836.559 1790.62 805.291 1816.22 792.324L2233.93 580.805C2259.53 567.839 2290.8 578.085 2303.77 603.69L2303.77 603.69C2316.73 629.296 2306.49 660.565 2280.88 673.531L1863.18 885.05C1837.57 898.017 1806.3 887.77 1793.34 862.165Z" fill="#B6A6F6" fill-rule="evenodd"/><path d="M1895 810.685C1882.03 785.079 1892.28 753.81 1917.88 740.844L1917.88 740.844C1943.49 727.878 1974.76 738.124 1987.73 763.729L1987.73 763.729C2000.69 789.335 1990.45 820.604 1964.84 833.57L1964.84 833.57C1939.23 846.536 1907.97 836.29 1895 810.685Z" fill="#B6A6F6" fill-rule="evenodd"/></g></svg>