<svg width="1069" height="531" xmlns="http://www.w3.org/2000/svg" xmlns:xlink="http://www.w3.org/1999/xlink" xml:space="preserve" overflow="hidden"><g transform="translate(-140 -379)"><path d="M417.846 706.43C441.482 697.098 468.208 708.693 477.54 732.329L503.665 798.497C512.998 822.133 501.402 848.859 477.766 858.191L477.766 858.191C454.13 867.523 427.404 855.928 418.072 832.292L391.947 766.124C382.615 742.488 394.211 715.762 417.847 706.43Z" fill="#5BC4A0" fill-rule="evenodd"/><path d="M289.959 382.524C313.595 373.192 340.321 384.788 349.653 408.424L349.653 408.424C358.985 432.06 347.39 458.786 323.754 468.118L323.754 468.118C300.118 477.45 273.392 465.854 264.06 442.218L264.06 442.218C254.728 418.583 266.323 391.857 289.959 382.524Z" fill="#2D1B4E" fill-rule="evenodd"/><path d="M346.533 482.039C361.911 475.967 379.3 483.511 385.372 498.89L400.2 536.446C406.272 551.825 398.728 569.214 383.349 575.285L353.446 587.092C338.068 593.164 320.679 585.619 314.607 570.241L299.779 532.685C293.707 517.306 301.251 499.917 316.63 493.845Z" fill="#FFC947" fill-rule="evenodd"/><path d="M143.702 742.288C134.37 718.652 145.965 691.926 169.601 682.594L555.173 530.359C578.809 521.027 605.535 532.622 614.867 556.258L614.867 556.258C624.199 579.894 612.604 606.62 588.968 615.952L203.396 768.187C179.76 777.519 153.034 765.924 143.702 742.288Z" fill="#B6A6F6" fill-rule="evenodd"/><path d="M237.545 705.236C228.213 681.6 239.808 654.874 263.444 645.542L496.498 553.526C520.133 544.194 546.859 555.789 556.192 579.425L556.191 579.425C565.523 603.061 553.928 629.787 530.292 639.12L297.239 731.135C273.603 740.468 246.877 728.872 237.545 705.236Z" fill="#B6A6F6" fill-rule="evenodd"/><text fill="#2D1B4E" font-family="Funnel Sans,Funnel Sans_MSFontService,sans-serif" font-weight="400" font-size="183" transform="matrix(1 0 0 1 489.364 756)">ondati</text><text fill="#2D1B4E" font-family="Funnel Sans,Funnel Sans_MSFontService,sans-serif" font-weight="400" font-size="183" transform="matrix(1 0 0 1 1007.85 756)">x</text><text fill="#2D1B4E" font-family="Funnel Sans,Funnel Sans_MSFontService,sans-serif" font-weight="400" font-size="64" transform="matrix(1 0 0 1 527.176 835)">DATENWERKSTATT</text></g></svg>