<svg width="149" height="102" viewBox="0 0 149 102" fill="none" xmlns="http://www.w3.org/2000/svg">
<path d="M134.553 38.0234H14.4506C6.46974 38.0234 0 44.4928 0 52.4731C0 60.4535 6.46974 66.9228 14.4506 66.9228H134.553C142.534 66.9228 149.004 60.4535 149.004 52.4731C149.004 44.4928 142.534 38.0234 134.553 38.0234Z" fill="#FFFBF3"/>
<path d="M134.553 3.33594H14.4506C6.46974 3.33594 0 9.80529 0 17.7856C0 25.766 6.46974 32.2353 14.4506 32.2353H134.553C142.534 32.2353 149.004 25.766 149.004 17.7856C149.004 9.80529 142.534 3.33594 134.553 3.33594Z" fill="#FFFBF3"/>
<path d="M134.553 72.3281H14.4506C6.46974 72.3281 0 78.7975 0 86.7778C0 94.7582 6.46974 101.228 14.4506 101.228H134.553C142.534 101.228 149.004 94.7582 149.004 86.7778C149.004 78.7975 142.534 72.3281 134.553 72.3281Z" fill="#FFFBF3"/>
<path d="M110.794 67.0105C118.775 67.0105 125.245 60.5408 125.245 52.5599C125.245 44.5791 118.775 38.1094 110.794 38.1094C102.813 38.1094 96.3438 44.5791 96.3438 52.5599C96.3438 60.5408 102.813 67.0105 110.794 67.0105Z" fill="#B6A6F6"/>
<path d="M33.513 32.3621C41.4939 32.3621 47.9636 25.8923 47.9636 17.9115C47.9636 9.93067 41.4939 3.46094 33.513 3.46094C25.5322 3.46094 19.0625 9.93067 19.0625 17.9115C19.0625 25.8923 25.5322 32.3621 33.513 32.3621Z" fill="#CFFF63"/>
<path d="M33.5131 100.807C41.4939 100.807 47.9636 94.3376 47.9636 86.3568C47.9636 78.376 41.4939 71.9062 33.5131 71.9062C25.5322 71.9062 19.0625 78.376 19.0625 86.3568C19.0625 94.3376 25.5322 100.807 33.5131 100.807Z" fill="#4D57B9"/>
</svg>
