<svg width="500" height="496" viewBox="0 0 500 496" fill="none" xmlns="http://www.w3.org/2000/svg">
<path d="M128.548 30.288L128.543 30.2906C119.307 35.623 116.143 47.4331 121.475 56.6691L201.736 195.685C207.069 204.921 218.879 208.086 228.115 202.754L228.12 202.751C237.356 197.418 240.52 185.608 235.188 176.372L154.926 37.3561C149.594 28.1201 137.784 24.9556 128.548 30.288Z" fill="#FF7550"/>
<path d="M183.26 221.869L24.0033 201.75C13.4226 200.414 3.76164 207.907 2.42498 218.488L2.42433 218.493C1.08767 229.074 8.58146 238.735 19.1622 240.072L178.419 260.19C188.999 261.527 198.66 254.033 199.997 243.453L199.998 243.447C201.334 232.867 193.841 223.206 183.26 221.869Z" fill="#4D57B9"/>
<path d="M186.631 286.765L73.1242 400.271C65.583 407.812 65.583 420.039 73.1242 427.58L73.1279 427.584C80.669 435.125 92.8957 435.125 100.437 427.584L213.943 314.078C221.484 306.536 221.484 294.31 213.943 286.769L213.94 286.765C206.398 279.224 194.172 279.224 186.631 286.765Z" fill="#CFFF63" stroke="#CFFF63" stroke-width="0.228208" stroke-miterlimit="10"/>
<path d="M241.385 316.663L253.281 476.744C254.071 487.379 263.334 495.36 273.969 494.57L273.975 494.57C284.61 493.779 292.591 484.517 291.801 473.881L279.905 313.8C279.114 303.165 269.852 295.184 259.216 295.974L259.211 295.975C248.576 296.765 240.595 306.027 241.385 316.663Z" fill="#4D57B9"/>
<path d="M308.071 183.842L354.622 29.7406C357.715 19.5024 351.923 8.69543 341.684 5.60262L341.679 5.60111C331.441 2.50831 320.634 8.30083 317.541 18.5391L270.99 172.64C267.897 182.879 273.69 193.686 283.928 196.778L283.933 196.78C294.171 199.873 304.978 194.08 308.071 183.842Z" fill="#B6A6F6"/>
<path d="M329.802 246.328L481.724 194.491C491.817 191.047 497.208 180.073 493.764 169.979L493.762 169.974C490.318 159.881 479.344 154.49 469.25 157.934L317.328 209.771C307.235 213.215 301.844 224.189 305.288 234.283L305.29 234.288C308.734 244.381 319.708 249.772 329.802 246.328Z" fill="#CFFF63"/>
<path d="M303.106 302.016L442.123 382.277C451.359 387.61 463.169 384.445 468.501 375.209L468.504 375.205C473.836 365.969 470.672 354.159 461.436 348.826L322.419 268.565C313.183 263.233 301.373 266.397 296.041 275.633L296.038 275.638C290.706 284.874 293.87 296.684 303.106 302.016Z" fill="#FF7550"/>
<path d="M257.226 281.194C278.15 281.194 295.112 264.231 295.112 243.307C295.112 222.384 278.15 205.421 257.226 205.421C236.302 205.421 219.34 222.384 219.34 243.307C219.34 264.231 236.302 281.194 257.226 281.194Z" fill="#292C2D"/>
<path d="M255.017 247.227C255.017 246.074 255.169 245.162 255.473 244.49C255.777 243.801 256.313 243.145 257.082 242.521L258.282 241.512C258.923 240.984 259.387 240.488 259.675 240.023C259.963 239.543 260.107 239.031 260.107 238.487C260.107 237.622 259.819 236.942 259.243 236.446C258.682 235.949 257.954 235.701 257.058 235.701C256.209 235.701 255.521 235.917 254.993 236.35C254.464 236.782 254.12 237.414 253.96 238.247H251.367C251.575 236.774 252.183 235.605 253.192 234.741C254.2 233.876 255.505 233.444 257.106 233.444C258.722 233.444 260.043 233.892 261.068 234.789C262.108 235.669 262.628 236.878 262.628 238.415C262.628 239.263 262.436 240.047 262.052 240.768C261.668 241.472 261.06 242.184 260.227 242.905L258.666 244.225C258.138 244.658 257.778 245.074 257.586 245.474C257.394 245.874 257.282 246.458 257.25 247.227H255.017ZM256.097 253.47C255.601 253.47 255.177 253.294 254.825 252.942C254.472 252.573 254.296 252.141 254.296 251.645C254.296 251.149 254.472 250.724 254.825 250.372C255.177 250.02 255.601 249.844 256.097 249.844C256.609 249.844 257.042 250.02 257.394 250.372C257.746 250.724 257.922 251.149 257.922 251.645C257.922 252.141 257.746 252.573 257.394 252.942C257.042 253.294 256.609 253.47 256.097 253.47Z" fill="#FEFCF5"/>
<path d="M260.544 334.065C271.37 334.065 280.146 325.289 280.146 314.463C280.146 303.637 271.37 294.86 260.544 294.86C249.718 294.86 240.942 303.637 240.942 314.463C240.942 325.289 249.718 334.065 260.544 334.065Z" fill="#CFFF63"/>
<path d="M200.192 173.999C211.018 173.999 219.794 165.223 219.794 154.397C219.794 143.571 211.018 134.795 200.192 134.795C189.366 134.795 180.59 143.571 180.59 154.397C180.59 165.223 189.366 173.999 200.192 173.999Z" fill="#4D57B9"/>
<path d="M155.088 365.218C165.914 365.218 174.69 356.441 174.69 345.615C174.69 334.789 165.914 326.013 155.088 326.013C144.262 326.013 135.486 334.789 135.486 345.615C135.486 356.441 144.262 365.218 155.088 365.218Z" fill="#B6A6F6"/>
<path d="M46.5941 243.653C57.4201 243.653 66.1963 234.877 66.1963 224.051C66.1963 213.225 57.4201 204.449 46.5941 204.449C35.7681 204.449 26.9919 213.225 26.9919 224.051C26.9919 234.877 35.7681 243.653 46.5941 243.653Z" fill="#B6A6F6"/>
<path d="M380.608 228.238C391.434 228.238 400.21 219.461 400.21 208.635C400.21 197.809 391.434 189.033 380.608 189.033C369.782 189.033 361.006 197.809 361.006 208.635C361.006 219.461 369.782 228.238 380.608 228.238Z" fill="#4D57B9"/>
<path d="M415.088 363.96C425.914 363.96 434.69 355.184 434.69 344.358C434.69 333.532 425.914 324.756 415.088 324.756C404.262 324.756 395.486 333.532 395.486 344.358C395.486 355.184 404.262 363.96 415.088 363.96Z" fill="#292C2D"/>
<path d="M335.858 44.0237C346.684 44.0237 355.46 35.2475 355.46 24.4215C355.46 13.5955 346.684 4.81934 335.858 4.81934C325.032 4.81934 316.256 13.5955 316.256 24.4215C316.256 35.2475 325.032 44.0237 335.858 44.0237Z" fill="#4D57B9"/>
</svg>
